<!DOCTYPE svg PUBLIC "-//W3C//DTD SVG 1.1//EN" "http://www.w3.org/Graphics/SVG/1.1/DTD/svg11.dtd">
<svg xmlns="http://www.w3.org/2000/svg" viewBox="0 0 400 400">
<path fill="#f3e4cc" stroke="#f3e4cc" d="M0 200.002v200.003l200.25-.253 200.25-.252.252-199.75L401.005 0H0v200.002m.49.498c0 110 .117 154.852.26 99.67.143-55.181.143-145.181 0-200C.607 45.352.49 90.5.49 200.5M227.723 68.05c-5.88.975-12.745 4.885-16.097 9.169-1.386 1.771-2.852 2.889-3.256 2.484-.405-.405-.204-1.269.447-1.92 2.102-2.102 1.266-3.545-2.461-4.244-2.004-.376-4.336-1.376-5.182-2.223-2.654-2.653-18.244-1.339-25.446 2.146-8.069 3.905-13.958 10.716-16.283 18.834l-1.828 6.384-8.559 4.835c-25.961 14.666-43.415 32.164-54.916 55.055-5.923 11.789-6.563 13.689-4.393 13.05 27.564-8.119 51.408-13.863 52.599-12.672 1.805 1.805-.357 2.768-13.348 5.944C118.666 167.419 88.623 174 87.424 174c-.187 0-1.21 3.037-2.274 6.75-2.287 7.979-3.067 11.25-2.682 11.25.154 0 2.217-.683 4.584-1.518 6.577-2.321 30.139-8.585 31.086-8.265.818.277-20.232 9.105-31.138 13.059-3.025 1.096-5.574 2.045-5.665 2.109-.091.063-.484 3.345-.873 7.293l-.706 7.178 16.812-4.905c9.246-2.698 16.891-4.803 16.989-4.678.097.125.405 2.347.683 4.938l.505 4.711-6.122 1.978c-3.368 1.087-10.848 3.377-16.623 5.087-5.775 1.711-11.4 3.506-12.5 3.989-1.1.483-3.35 1.29-5 1.793-3.36 1.025-3.548 2.577-1.407 11.576 1.365 5.741-1.398 5.764 26.888-.23 10.714-2.27 19.87-3.998 20.345-3.84 1.713.571-37.76 16.725-40.867 16.725-.738 0-1.623.456-1.967 1.014-.693 1.121 3.556 9.337 4.774 9.231.421-.036 4.921-.757 10-1.603 12.848-2.137 22.185-3.455 22.502-3.175 1.103.972-7.992 5.533-11.034 5.533-29.631 0-28.258 42.962 1.573 49.219 4.054.85 5.813 1.75 6.54 3.344 1.547 3.395 9.445 6.792 13.865 5.963 4.276-.802 10.288-6.324 10.288-9.449 0-1.922.471-1.751 4.973 1.807 2.735 2.162 5.548 4.136 6.25 4.387.702.25 1.052.672.777.938-.864.834-24.933 7.791-26.955 7.791-3.83 0-3.1 2.088 1.429 4.092 8.92 3.945 24.35 3.665 39.219-.713l5.807-1.709-3.406-.904c-2.487-.66-5.178-.424-9.976.875-7.476 2.024-21.211 2.485-21.814.732-.583-1.691-1.673-1.391 70.586-19.415l67.39-16.809 4.837-4.764c2.66-2.621 4.713-4.888 4.561-5.04-.151-.151-6.553 1.028-14.227 2.621-25.702 5.337-39.451 7.754-39.451 6.938 0-.446 1.463-1.23 3.25-1.744 1.787-.513 13.375-3.879 25.75-7.478a9743.43 9743.43 0 0 1 28.25-8.185c9.773-2.786 6.334-3.405-4.5-.81-15.726 3.766-50.491 11.317-51.95 11.283-3.065-.072 4.293-2.802 37.592-13.948 40.736-13.635 42.989-14.616 44.574-19.419.637-1.932 2.761-4.672 4.835-6.241 23.965-18.121 24.516-48.92 1.196-66.864-9.605-7.391-7.869-11.905 4.673-12.152 4.307-.084 9.102-.197 10.657-.25 3.918-.133 8.673-5.052 8.673-8.972 0-11.495-15.718-16.569-34.238-11.053-3.824 1.139-7.098 1.926-7.275 1.749-.876-.875 5.868-6.886 10.584-9.434 9.682-5.23 18.365-15.761 20.52-24.886.679-2.875.63-2.932-1.191-1.36-2.481 2.141-16.783 9.228-21.9 10.852-2.2.698-4.45 1.609-5 2.025-2.591 1.96-9.416 2.14-11.924.313-2.851-2.076-3.266-3.33-1.103-3.33 6.754 0 22.984-13.065 25.2-20.287 1.312-4.275 1.082-4.375-4.235-1.824-7.485 3.591-20.274 7.018-31.861 8.538l-11.63 1.525-5.444-2.67c-4.933-2.419-5.383-2.91-4.797-5.226 3.446-13.63-4.441-28.931-16.282-31.586-5.33-1.195-5.89-1.217-10.701-.42m-5.401 6.022c-2.298 1.145-6.485 4.522-9.306 7.505-4.848 5.126-10.966 8.34-6.516 3.423 1.78-1.967 1.747-2-2.019-2h-3.83l2.175-2.314c3.283-3.496 2.738-3.955-4.175-3.515-6.161.393-6.286.353-4.25-1.35 3.183-2.661-7.47-2.516-14.729.201C171.271 79.165 162 90.122 162 96.907c0 3.463-1.17 5.093-3.655 5.093-3.08 0-7.116 4.278-7.898 8.372-.493 2.58-1.767 3.793-7.272 6.924C130.471 124.521 127 127.577 127 131.538c0 4.914 5.376 15.267 8.31 16.004 1.265.317 3.139 2.136 4.165 4.041 1.98 3.677 4.865 4.967 9.238 4.131 1.828-.349 4.358.438 7.982 2.483l5.305 2.994-7.862 3.801c-22.576 10.918-33.805 22.478-35.698 36.751-.849 6.396.508 8.904 6.173 11.41 5.014 2.218 7.729 1.781 9.946-1.602 1.288-1.966 2.129-2.228 5.823-1.811 5.52.622 11.89-2.106 17.937-7.68l4.468-4.119 2.107 6.935c1.158 3.814 2.106 8.894 2.106 11.29v4.355l-10.78 3.321c-13.777 4.244-28.453 10.356-29.031 12.091-.247.74.014 1.06.579.711.564-.349 2.334-.374 3.932-.054l2.904.581-2.802 5.555c-4.319 8.564-3.644 16.661 1.871 22.443 5.331 5.588-2.179 6.57-14.014 1.831-9.803-3.925-17.144-4.058-24.402-.441-17.728 8.834-8.256 36.934 13.196 39.148 3.369.348 5.547 1.049 5.547 1.787 0 4.401 8.095 7.942 13.455 5.885 2.273-.872 4.77-6.096 4.029-8.429-.513-1.616-.136-1.954 2.199-1.971 1.549-.011 5.742-.635 9.317-1.387 6.271-1.318 8.834-.751 7.363 1.63-.913 1.477 1.745 7.74 3.936 9.275 7.888 5.525 18.566-4.534 13.099-12.339-1.997-2.852-2.648-2.531 8.625-4.254l9.523-1.457-.376 3.219c-.284 2.435.248 3.843 2.182 5.777 6.684 6.684 17.007-1.298 12.52-9.682-1.124-2.101-1.119-2.101 1.635.066 3.598 2.83 7.702 2.757 11.137-.197 5.841-5.025 1.961-14.585-5.95-14.66-5.17-.05-1.26-1.574 8.806-3.433 18.124-3.347 26.835-6.872 33.534-13.571 5.521-5.521 4.83-10.615-1.33-9.808-1.588.208-3.651-.783-6.088-2.922-2.027-1.78-4.682-3.268-5.901-3.306-5.483-.174-6.157-1.356-2.405-4.217l3.522-2.687 6.334 2.964c35.387 16.559 75.588 5.266 83.351-23.415 4.388-16.209-.438-27.681-17.507-41.622-10.549-8.617-2.383-18.087 14.275-16.556 13.307 1.223 16.392-9.378 3.927-13.492-15.606-5.151-37.754 5.68-41.228 20.161-2.248 9.373-.138 15.52 8.585 25.009 7.757 8.438 7.487 9.12-5.154 13.024-3.635 1.123-6.404 2.246-6.154 2.496.662.661 25.075-3.697 26.133-4.666 1.64-1.499-1.582-6.936-6.947-11.724-2.901-2.588-6.246-5.943-7.433-7.455-3.335-4.248-.261-3.363 5.29 1.522 2.642 2.325 6.327 5.486 8.188 7.023 6.964 5.75 6.734 19.188-.478 27.891-6.765 8.165-20.823 11.578-36.382 8.835-9.386-1.655-9.886-2.1-4.043-3.598 2.701-.692 7.611-2.307 10.911-3.589 5.917-2.298 5.951-2.334 2.5-2.604-7.934-.621-19.655-3.529-24.883-6.173l-5.577-2.82 5.545-1.151c11.786-2.447 21.906-9.217 23.546-15.754 2.176-8.668-8.498-22.654-26.741-35.04l-8.611-5.846 20.104-3.871c35.586-6.852 35.446-7.606-.669-3.58-14.654 1.633-27.297 2.719-28.095 2.412-2.093-.803-7.02-8.566-6.858-10.805.075-1.044-.515-3.159-1.312-4.701-.797-1.541-1.449-3.049-1.449-3.351 0-1.62 6.599-.165 10.735 2.367 26.414 16.171 69.868 10.077 85.746-12.023 4.249-5.914 4.119-5.953-3.075-.913-12.193 8.541-32.128 13.675-49.406 12.725-10.148-.559-23.657-3.455-22.313-4.784 2.126-2.101 19.548-6.893 27.334-7.517 13.9-1.116 20.977-4.351 31.229-14.276 6.301-6.1 7.62-8.63 2.5-4.798-7.808 5.845-17.916 9.367-30.713 10.704-12.689 1.325-16.421 2.251-30.341 7.535-13.024 4.944-16.229 4.984-8.992.113 16.084-10.825 17.646-32.465 3.091-42.829-4.559-3.246-13.786-3.617-19.473-.782m1.033 5.375c-1.73.752-6.005 4.372-9.5 8.042-3.495 3.671-7.922 7.763-9.837 9.093S200.99 99 201.545 99c1.798 0 5.798-3.132 13.455-10.534 4.125-3.988 8.85-7.956 10.5-8.818 3.693-1.93 2.159-2.074-2.145-.201M177 88.36c-2.475 1.821-5.136 4.082-5.914 5.025-2.799 3.395 13.576-4.438 16.888-8.078.855-.939-4.243 1.815-7.224 3.903-3.294 2.307-3.594 1.318-.576-1.896 2.948-3.137 2.159-2.877-3.174 1.046m-7.031 11.393c-2.955 2.065-6.858 5.777-8.674 8.25-1.815 2.474-4.087 5.343-5.048 6.377-1.683 1.81-1.664 1.836.493.72 1.231-.638 2.884-2.407 3.673-3.932 1.448-2.801 7.575-8.838 13.087-12.896 5.043-3.713 2.191-2.516-3.531 1.481m11.92 6.747c-.646 2.907-.083 4.965 1.296 4.732 4.705-.793 1.855 6.749-3.167 8.385-3.226 1.051-3.294 1.161-1.137 1.845 6.807 2.161 15.735-3.828 14.117-9.468-1.063-3.707-.8-3.36-3.682-4.859-2.194-1.14-7.219-1.57-7.427-.635m-26.544 3.043c-.326.849-.369 1.767-.096 2.04.274.273.737-.422 1.03-1.543.624-2.383-.069-2.751-.934-.497m-9.582 11.151c-4.24 2.582-7.52 4.882-7.291 5.112.405.405 15.528-8.828 15.528-9.481 0-.606-.522-.329-8.237 4.369M132 130.03c-1.048.698-.145.802 3 .345 5.601-.813 6.4-1.38 1.917-1.36-1.88.009-4.092.465-4.917 1.015m45 9.935c0 .714-1.687 2.921-3.75 4.903-2.195 2.11-2.727 2.947-1.283 2.019 3.104-1.997 6.62-6.633 5.716-7.537-.376-.376-.683-.099-.683.615m-64.532 9.413c-13.347 3.921-14.92 4.503-14.175 5.248.837.838 30.707-6.696 30.707-7.745 0-1.597-5.346-.79-16.532 2.497m32.782-.66c-1.973.708-1.456 2.282.75 2.282 1.1 0 2-.423 2-.941 0-1.28-1.237-1.883-2.75-1.341m10.183 2.173c.713 1.154 4.567 3.483 4.567 2.759 0-.231-1.18-1.193-2.623-2.139-1.443-.945-2.318-1.224-1.944-.62m143.067 6.578c-1.65 1.352-2.615 2.475-2.144 2.495.47.02 2.192-1.089 3.826-2.464s2.599-2.498 2.145-2.495c-.455.003-2.177 1.112-3.827 2.464m-94.485 6.016c-1.858 1.917-3.184 3.639-2.947 3.827.238.188 1.947-1.38 3.798-3.485 4.207-4.783 3.664-5.001-.851-.342m73.174-.771c-3.403.65-3.924 3.217-1.095 5.392 2.798 2.151 4.903 2.427 4.912.644.004-.687.652-2.488 1.441-4 1.557-2.985.946-3.221-5.258-2.036m14.478 3.953c-.833.832-.877 8.621-.062 10.745 1.086 2.83 2.271.643 1.365-2.518-.486-1.693-.621-4.387-.302-5.986.577-2.881.287-3.529-1.001-2.241M158 167.872c-10.718 5.799-15.08 8.381-14.738 8.724.671.67 7.109-1.776 8.738-3.321.825-.782 3.3-2.5 5.5-3.817 3.636-2.177 4.056-3.509.5-1.586m11.079 1.711c.048 1.165.285 1.402.604.605.289-.722.253-1.585-.079-1.917-.332-.332-.568.258-.525 1.312m6.495.417c1.069 3.902 5.697 12.618 6.091 11.471.195-.565-1.25-3.94-3.211-7.5-1.96-3.559-3.256-5.346-2.88-3.971m22.298.75c-1.243 1.586-1.208 1.621.378.378 1.666-1.307 2.195-2.128 1.372-2.128-.207 0-.995.787-1.75 1.75m-27.793 2.833c.048 1.165.285 1.402.604.605.289-.722.253-1.585-.079-1.917-.332-.332-.568.258-.525 1.312m23.901 1.941c-.696.838-1.071 1.718-.835 1.955.237.236.98-.449 1.651-1.524 1.452-2.325.968-2.58-.816-.431m-22.901 2.059c.048 1.165.285 1.402.604.605.289-.722.253-1.585-.079-1.917-.332-.332-.568.258-.525 1.312m-4.35 6.917c.299 3.85.708 7.188.908 7.417.668.766.137-8.378-.663-11.417-.479-1.82-.576-.246-.245 4m-29.551-4.214c-.807.972-.594 1.285.877 1.285 1.07 0 1.945-.578 1.945-1.285s-.395-1.286-.878-1.286c-.482 0-1.357.579-1.944 1.286m53.034.746c-1.791 2.868-1.473 3.786.39 1.126.881-1.258 1.427-2.463 1.212-2.677-.214-.215-.935.483-1.602 1.551m47.057-1.339c.973.254 2.323.237 3-.037.677-.274-.119-.481-1.769-.461-1.65.02-2.204.244-1.231.498m-21.567 4.707c-1.211 1.32-3.024 3.907-4.029 5.75l-1.827 3.35 2.327-2.589c1.28-1.424 3.232-3.84 4.337-5.369 3.803-5.259 6.233-2.886 2.517 2.458l-3.129 4.5 3.391-3.857c2.6-2.958 4.652-4.162 8.801-5.165l5.41-1.308-7.798-.085c-7.01-.076-8.02.157-10 2.315m-31.103 5.595c-1.498 2.753-2.509 5.005-2.247 5.005.669 0 5.756-9.226 5.324-9.657-.194-.194-1.579 1.899-3.077 4.652m-56.907 1.176c-1.366 2.381-2.751 5.454-3.078 6.829-.38 1.6-.022 1.246.994-.983.874-1.916 2.493-4.755 3.599-6.308 1.106-1.553 1.777-3.059 1.49-3.345-.286-.287-1.639 1.427-3.005 3.807m95.47.372c-1.675 3.677-1.355 4.462.456 1.119.846-1.562 1.351-3.026 1.123-3.255-.229-.228-.939.733-1.579 2.136m5.462 2.996c-.965 2.514-.681 3.163.498 1.136.584-1.004.851-2.036.593-2.293-.257-.258-.749.263-1.091 1.157m-11.811 7.144c.721.289 1.584.253 1.916-.079.332-.332-.258-.568-1.312-.525-1.165.048-1.402.285-.604.604m-10.367 2.823c-2.72 1.378-6.071 3.452-7.446 4.608-2.431 2.045-2.403 2.043 1-.059 3.34-2.063 6.497-3.612 12-5.886 1.411-.583 1.823-1.063.946-1.101-.854-.038-3.779 1.06-6.5 2.438m-67.946 14.42c-18.923 4.802-49.258 14.159-52.367 16.153-1.253.804-.935.895 1.367.391 1.65-.36 12.225-2.649 23.5-5.086 25.922-5.603 49.147-11.371 50.691-12.59 1.751-1.383.428-3.802-2.048-3.742-1.179.029-10.693 2.222-21.143 4.874m24.5 8.668c-6.875 1.875-13.85 3.776-15.5 4.223-2.539.69-2.693.895-1 1.34 2.119.556 18.666-3.283 23.898-5.545 1.706-.737 4.227-1.821 5.602-2.408 4.604-1.968-.392-1.049-13 2.39m139.75 3.978c-3.738 2.028-3.511 2.873.25.928 1.65-.853 3-1.765 3-2.026 0-.643-.107-.607-3.25 1.098m-9.61 3.575c-1.847.532-3.157 1.169-2.909 1.417.75.751 6.769-.751 6.769-1.689 0-.481-.113-.834-.25-.785-.137.05-1.762.525-3.61 1.057M285.5 237c.34.55.816 1 1.059 1s.441-.45.441-1-.477-1-1.059-1-.781.45-.441 1m-148.911 7.196c-2.648 5.315-3.274 10.173-1.642 12.752.603.954.738.102.395-2.5-.411-3.118.118-5.157 2.515-9.698 1.67-3.162 2.65-5.75 2.179-5.75-.471 0-2.022 2.338-3.447 5.196M108 250.212c-13.737 4.098-14.671 4.45-13.89 5.231.517.517 29.203-5.901 30.807-6.892 1.856-1.147 1.188-2.555-1.167-2.458-1.237.05-8.325 1.904-15.75 4.119m123.768 5.187c-3.153.678-6.078 1.612-6.5 2.076-.423.464.014.563.97.22.956-.342 3.993-.922 6.75-1.288 2.757-.365 5.012-1.057 5.012-1.536 0-.479-.113-.833-.25-.787-.137.046-2.83.638-5.982 1.315m-44.268 1.217c-4.4.735-10.284 1.1-13.075.81-4.593-.476-5.578-.188-10.365 3.034-2.91 1.958-6.331 3.821-7.603 4.14-4.616 1.159-3.974 3.742.771 3.102 2.35-.317 11.995-1.362 21.434-2.322l17.161-1.746.589-2.942c.791-3.959.74-5.72-.162-5.553-.412.077-4.35.741-8.75 1.477m78.5.892c-7.289 1.481-12.554 3.326-9.778 3.429 3.092.113 16.778-3.224 16.778-4.091 0-.465-.113-.804-.25-.752-.137.052-3.175.688-6.75 1.414M99.5 271.49c-2.2.814-4.101 1.487-4.224 1.495-.617.041-3.357 6.268-2.941 6.683.265.266.789-.482 1.163-1.662C95.523 271.627 105.523 270.4 118 275c9.267 3.417 15.836 3.736 30 1.458l8.5-1.368-8 .705c-15.635 1.378-22.454.927-29.522-1.95-8.648-3.519-14.44-4.22-19.478-2.355m94.75-.801c.963.252 2.537.252 3.5 0 .963-.251.175-.457-1.75-.457s-2.713.206-1.75.457m-9.488 1.018c1.244.239 3.044.23 4-.02s-.062-.446-2.262-.435c-2.2.011-2.982.216-1.738.455m-9.512.982c.963.252 2.537.252 3.5 0 .963-.251.175-.457-1.75-.457s-2.713.206-1.75.457m-8.488 1.018c1.244.239 3.044.23 4-.02s-.062-.446-2.262-.435c-2.2.011-2.982.216-1.738.455m-8 1c1.244.239 3.044.23 4-.02s-.062-.446-2.262-.435c-2.2.011-2.982.216-1.738.455" fill-rule="evenodd"/>
<path fill="#abadc0" stroke="#abadc0" d="M224 73.675c-2.957 1.071-6.561 3.754-10.51 7.825-4.628 4.769-6.452 6.04-7.927 5.522-1.714-.601-1.739-.74-.24-1.316 3.057-1.173 1.858-2.946-1.711-2.529l-3.387.395 2.63-3.449 2.631-3.449-6.942.711-6.941.711 1.948-2.196 1.949-2.197-6.5.656c-15.36 1.553-22.952 8.797-27.561 26.297-.167.635-1.679 1.457-3.359 1.826-3.613.794-7.08 4.809-7.08 8.199 0 1.664-.961 2.941-3.098 4.116-11.512 6.33-20.902 13.4-20.902 15.737 0 5.977 6.299 17.466 9.576 17.466.674 0 2.147 1.56 3.272 3.468 2.307 3.909 6.071 5.345 9.69 3.697 1.542-.703 2.606-.741 2.997-.108.334.539 2.91 2.148 5.725 3.575l5.119 2.594-4.939 2.142c-23.554 10.216-36.806 22.569-39.28 36.615-1.303 7.397-.302 10.247 4.38 12.469 6.08 2.885 11.46 1.59 11.46-2.759 0-1.334.479-1.723 1.593-1.296 4.249 1.631 6.446 1.56 11.608-.371 3.223-1.206 7.619-3.98 10.375-6.546 2.631-2.45 4.837-4.348 4.903-4.217 1.216 2.4 3.608 16.365 3.358 19.604l-.337 4.366-8.303 2.392c-9.855 2.838-28.982 10.218-29.764 11.484-.303.49 1.051.891 3.008.891 4.109 0 4.256.422 1.568 4.5-5.164 7.835-4.694 18.638 1.058 24.261 2.89 2.825 2.958 3.071 1.319 4.71-2.146 2.146-7.058 1.533-15.23-1.902-7.718-3.244-14.007-4.044-20.167-2.566-22.933 5.501-14.922 38.512 9.812 40.431 3.846.298 4.757.742 5.016 2.445 1.299 8.531 16.183 7.312 16.183-1.325v-3.3l9.049-1.655C150.425 299.7 151 299.86 151 304.636c0 4.089 4.491 9.364 7.973 9.364 7.178 0 11.737-7.437 8.217-13.403l-1.981-3.356 7.646-1.215c4.205-.668 8.883-1.453 10.395-1.745 2.592-.501 2.716-.361 2.158 2.431-1.448 7.237 8.348 11.598 13.25 5.899 2.752-3.199 2.937-5.317.74-8.453-1.795-2.563-.897-4.554.934-2.07 4.744 6.437 14.668 3.28 14.668-4.666 0-4.912-2.966-7.877-7.88-7.877-7.514 0-2.321-2.282 11.38-5.001 15.295-3.035 25.384-7.46 30.879-13.542 4.093-4.53 4.273-5.207 1.997-7.483-1.088-1.088-2.524-1.426-4.354-1.024-2.17.477-3.06.096-4.341-1.858-1.507-2.3-4.314-3.601-10.941-5.069l-2.76-.611 3.506-3.079 3.507-3.079 8.843 3.581c41.562 16.827 82.141.651 82.484-32.88.129-12.604-3.998-20.639-14.982-29.168-6.931-5.382-8.265-7.07-8.306-10.505-.083-6.981 8.284-11.092 20.56-10.101 5.689.459 6.231.315 8.194-2.181 7.612-9.677-15.42-15.431-31.022-7.75-18.686 9.2-21.452 26.443-6.811 42.463 7.165 7.84 6.399 10.153-4.241 12.805-7.789 1.942-4.636 2.2 5.44.446 13.479-2.347 14.284-2.764 12.39-6.429-.835-1.614-4.674-6.022-8.53-9.796-3.857-3.773-7.012-7.406-7.012-8.072 0-2.089 3.125-1.322 5.162 1.266 1.187 1.509 2.807 2.389 4.144 2.25 1.729-.18 2.131.231 1.895 1.939-.202 1.466.365 2.378 1.751 2.818 3.48 1.104 7.064 6.852 7.718 12.38 2.402 20.281-19.004 33.307-44.67 27.184-8.074-1.927-8.035-2.116.968-4.715 4.533-1.309 9.432-3.026 10.887-3.817 2.58-1.402 2.514-1.438-2.711-1.477-6.826-.051-15.986-2.422-22.941-5.939l-5.445-2.754 6.466-1.596c8.666-2.138 15.357-5.398 19.421-9.463 9.157-9.157-.089-25.424-23.26-40.923l-9.063-6.062 21.882-4.275c12.035-2.352 21.695-4.463 21.466-4.692-.229-.228-10.54.727-22.914 2.124-25.693 2.901-28.288 3.013-29.704 1.29-5.417-6.597-7.816-10.651-6.471-10.937 1.23-.262 1.138-.965-.554-4.274-2.509-4.905-2.584-4.539.923-4.539 1.622 0 5.56 1.583 8.75 3.518 9.651 5.853 16.909 7.668 32.8 8.199 23.455.784 37.868-3.866 48.895-15.777 5.472-5.911 7.833-10.307 3.355-6.25-3.902 3.537-10.932 7.083-20.75 10.468-12.29 4.237-38.679 4.881-49.5 1.208l-6-2.036 4-1.731c7.641-3.305 20.756-6.599 26.362-6.62 6.769-.025 17.092-3.463 23.245-7.74C304.34 106.6 311.884 99 310.262 99c-.629 0-1.427.459-1.774 1.019-2.376 3.844-19.95 9.496-34.197 10.997-9.764 1.029-15.445 2.589-30.651 8.419-9.272 3.555-12.995 2.581-5.812-1.521 24.67-14.09 12.289-53.701-13.828-44.239m.061 5.383c-2.461 1.116-8.566 6.006-13.705 10.978C205.26 94.966 200.62 99 200.045 99c-.575 0-1.045.409-1.045.909 0 2.232 9.034-3.806 17.025-11.378 5.764-5.463 10.232-8.813 13.11-9.83 3.364-1.189 3.792-1.556 1.865-1.6-1.375-.031-4.497.849-6.939 1.957m-39.37 7.369c-5.903 3.555-6.931 3.624-3.941.265 3.457-3.883-3.93.813-8.174 5.195l-3.923 4.053 4.923-1.873C179.432 91.841 194.065 83 191.895 83c-.832 0-4.074 1.542-7.204 3.427M241 83.378c0 .207.685.946 1.523 1.641 1.273 1.057 1.42.995.893-.378-.538-1.401-2.416-2.384-2.416-1.263m3.528 6.412c.831 4.216-.4 13.407-1.69 12.61-.536-.331-.898-2.019-.805-3.751.52-9.661-1.506-10.036-2.251-.417-.333 4.309-.152 5.49.729 4.759 1.183-.982 2.489-.365 2.489 1.176 0 .458-.562.721-1.25.583-.741-.148-1.112.542-.911 1.696.305 1.755.158 1.804-1.5.5-1.708-1.343-1.736-1.314-.381.407 3.854 4.898 9.685-14.016 5.966-19.353-.776-1.113-.878-.652-.396 1.79m-52.028-.326c-1.65.755-2.299 1.41-1.441 1.455.857.044 2.432-.58 3.5-1.387 2.411-1.824 1.818-1.843-2.059-.068m-43 3.402c-38.054 18.128-64.337 49.919-75.039 90.765C71.853 193.584 69.598 225 71.492 225c.427 0 2.516-.521 4.642-1.158L80 222.683V212.45c0-42.999 24.859-83.667 65.622-107.354 11.646-6.768 13.967-9.328 14.363-15.846.056-.928-3.577.325-10.485 3.616m27.588 2.225c-5.525 2.209-14.788 9.867-17.032 14.081-1.842 3.459-3.835 5.187-9.93 8.608-8.694 4.88-12.838 7.841-12.06 8.619.866.866 21.074-12.142 22.725-14.628 3.059-4.607 8.867-10.131 14.614-13.899 5.851-3.837 6.339-4.642 1.683-2.781m78.537 2.034c-1.048 5.24-.789 5.758 4.125 8.248 4.398 2.229 13.81 2.4 15.92.291.396-.397-17.886-11.664-18.925-11.664-.272 0-.776 1.406-1.12 3.125m-73.707 9.125c-1.247 3.791-.839 5.962 1.03 5.474 1.637-.428 2.052-.064 2.052 1.798 0 4.67-5.844 7.834-9.072 4.913-1.589-1.439-1.928-1.484-1.928-.259 0 4.792 12.15 4.97 17.076.251 5.281-5.059 2.001-12.427-5.531-12.427-1.95 0-3.582.112-3.627.25m-25.89 2.216c-.669.807-1.062 1.917-.873 2.468.19.55.865-.11 1.501-1.467 1.318-2.813 1.127-3.116-.628-1.001M210 110.409c0 .19.675.906 1.5 1.591.865.718 1.5.815 1.5.229 0-.558-.675-1.274-1.5-1.591-.825-.316-1.5-.419-1.5-.229m19.559 1.123c-1.074.812-4.063 1.468-6.691 1.468-2.613 0-4.967.351-5.232.779-.983 1.591 11.374-.361 13.08-2.066 2.085-2.086 1.485-2.18-1.157-.181m4.948 1.457c-.35.566.051.734.941.393 1.732-.665 2.049-1.382.611-1.382-.518 0-1.216.445-1.552.989M225 115l-5.5.674 5 .093c2.75.051 5.9-.294 7-.767 2.255-.969 1.406-.969-6.5 0m68 3.5c-1.375.786-3.288 1.445-4.25 1.465-2.29.046-2.217 1.302.202 3.491 1.727 1.564 2.527 1.629 6.963.565l5.011-1.203-2.151-2.909c-2.461-3.328-2.431-3.321-5.775-1.409m-135 9c-1.375.786-2.05 1.429-1.5 1.429.55 0 2.125-.643 3.5-1.429s2.05-1.429 1.5-1.429c-.55 0-2.125.643-3.5 1.429m-26.504 2.507c-1.144 1.85 2.46 2.225 6.254.652l3.75-1.556-4.691-.051c-2.58-.029-4.971.401-5.313.955M153 130c-.901.582-1.025.975-.309.985.655.008 1.469-.435 1.809-.985.767-1.242.421-1.242-1.5 0m24.533 7.927c-1.763 3.909-5.225 7.737-9.033 9.987-1.826 1.079-1.783 1.121.5.49 5.621-1.556 8.818-5.146 10.379-11.654.927-3.866.227-3.419-1.846 1.177M159 136.017c-3.036.654-2.746.748 2.187.716 3.128-.021 6.278-.412 7-.87 1.611-1.021-4.18-.924-9.187.154m-44.291 13.174c-5.934 1.684-10.571 3.28-10.304 3.547.732.732 23.595-5.028 23.595-5.944 0-1.208-1.598-.92-13.291 2.397M143 148.8c0 1.493 2.237 3.046 3.622 2.515 2.368-.909 1.554-3.315-1.122-3.315-1.375 0-2.5.36-2.5.8m10 .632c0 .237 1.352 1.394 3.004 2.571 3.302 2.351 9.405 4.468 8.456 2.933-.318-.515-1.025-.936-1.572-.936-.547 0-2.65-1.125-4.673-2.5-3.47-2.358-5.215-3.05-5.215-2.068m55.574 8.683c-12.122 12.885-23.324 28.47-27.549 38.326-2.839 6.623-1.777 5.597 2.785-2.691 5.757-10.461 14.864-22.872 24.655-33.604 4.694-5.144 8.535-9.532 8.535-9.75 0-1.041-1.341.187-8.426 7.719m104.817-6.391c.962.963 8.608.985 8.608.026.001-.412-2.099-.75-4.666-.75-2.566 0-4.34.326-3.942.724M306 153c-1.968 1.272 1.54 1.272 4.5 0 1.832-.787 1.79-.864-.5-.914-1.375-.031-3.175.381-4 .914m19 0c.825.533 2.175.969 3 .969 1.333 0 1.333-.107 0-.969-.825-.533-2.175-.969-3-.969-1.333 0-1.333.107 0 .969m-24.614 2.912c-2.797 1.7-7.78 7.034-7.15 7.652.732.718 5.659-.924 5.166-1.722-.656-1.062 1.489-4.028 2.472-3.42.357.221 1.519-.236 2.583-1.014 3.215-2.351.504-3.671-3.071-1.496M129.5 161.065c-33.169 9.111-40.785 11.34-39.836 11.656 2.846.949 51.51-10.743 52.101-12.517.577-1.729-4.007-1.408-12.265.861m148.25 2.138c-4.446 1.18-4.63 1.96-1.115 4.724 3.34 2.628 4.017 2.602 4.62-.177.268-1.238.819-3.037 1.223-4 .817-1.943.616-1.967-4.728-.547m-121.395 5.251c-5.043 2.294-21.724 12.568-21.148 13.026.161.128 1.81.522 3.665.876 3.017.575 3.231.473 2.038-.965-1.723-2.076 1.092-4.391 5.34-4.391 1.918 0 2.631-.384 2.153-1.158-.491-.793-.037-.98 1.441-.593 1.439.376 2.156.105 2.156-.817 0-.759 1.463-2.131 3.25-3.048 8.518-4.369 9.398-6.7 1.105-2.93m134.598.169c-1.001 2.634-.356 9.01.997 9.846 1.244.769 5.053-2.497 4.987-4.276-.045-1.18-.417-.935-1.23.807-1.064 2.282-1.194 1.998-1.486-3.25-.343-6.146-1.646-7.393-3.268-3.127m-121.863.522c-.108 3.164 3.583 15.535 4.873 16.332.5.309.448-.91-.116-2.708-.563-1.798-1.843-6.194-2.845-9.769-1.133-4.042-1.856-5.5-1.912-3.855m10.771-.204c1.298 1.132 2.836 2.059 3.416 2.059 1.23 0 1.171-.05-2.777-2.362l-3-1.757 2.361 2.06m-4.86.309c.002 2.861 6.087 14.062 7.093 13.056.698-.698-.138-3.136-2.627-7.665-3.694-6.719-4.468-7.654-4.466-5.391M166.424 182c.405 8.812 2.284 20.625 3.145 19.765.449-.449-2.465-26.837-3.121-28.265-.253-.55-.264 3.275-.024 8.5M235 179c0 .55.563 1.034 1.25 1.075 11.626.698 13.267.586 10.25-.703-3.583-1.531-11.5-1.787-11.5-.372m-15.261 2.908c-4.373.908-3.718.33-7.188 6.342-3.475 6.022-1.922 6.188 2.342.25 1.777-2.475 3.905-4.5 4.728-4.5 1.602 0 1.354.65-2 5.257-1.555 2.135-1.738 3.026-.814 3.95.924.924 1.193.913 1.193-.047 0-4.396 7.153-9.184 14.011-9.379 4.819-.137 1.87-2.016-3.702-2.359-2.645-.162-6.501.056-8.57.486m-91.669 7.73c-2.342 2.977-5.104 11.422-5.003 15.294.048 1.819.423 1.256 1.286-1.932.67-2.475 2.621-7.088 4.336-10.25 3.26-6.01 2.937-7.633-.619-3.112m94.965 1.296c-.569 1.064-1.035 2.414-1.035 3 0 1.716 1.711 1.225 2.384-.684.34-.963.879-2.312 1.2-3 .957-2.053-1.426-1.413-2.549.684m5.136 3.163c-.72 1.154-1.064 2.343-.764 2.643.817.817 3.593-1.781 3.593-3.362 0-2.02-1.33-1.681-2.829.719m-17.692 8.297c-4.968 1.556-7.331 3.053-20.193 12.783-5.618 4.249-11.918 8.169-14 8.71-11.383 2.957-27.171 7.174-29.786 7.956l-3 .898 2.768.742c3.01.808 3.607.713 14.753-2.334 11.191-3.06 18.518-6.625 27.979-13.611 13.76-10.162 22.163-14.463 31-15.868 1.474-.235.859-.426-1.5-.467-2.2-.038-5.809.498-8.021 1.191m108.6.189c.048 1.165.285 1.402.604.605.289-.722.253-1.585-.079-1.917-.332-.332-.568.258-.525 1.312m-.276 7.978c-.229 1.958-.053 3.785.391 4.059.443.274.806-1.329.806-3.561 0-5.01-.639-5.276-1.197-.498M136 219.948c-18.689 4.837-48.34 14.045-47.602 14.783.22.22 2.158-.073 4.307-.652 2.149-.578 13.281-3.078 24.737-5.555C146.921 222.152 162 218.039 162 216.372c0-2.36-6.534-1.461-26 3.576m179.211-.278c-1.259 1.972-2.008 3.866-1.665 4.208.838.835 5.454-4.61 5.454-6.434 0-2.376-1.362-1.576-3.789 2.226m-126.339 5.08c-1.243 1.586-1.208 1.621.378.378 1.666-1.307 2.195-2.128 1.372-2.128-.207 0-.995.787-1.75 1.75m121.506 1.448c-.445.72-.226.826.622.302s1.067-.418.622.302c-.377.611-1.347.857-2.154.547-1.765-.677-1.934.785-.282 2.437 1.177 1.177 4.814-.965 4.814-2.834 0-1.3-2.911-1.905-3.622-.754m-8.658 5.39c-3.984 2.16-2.351 3.681 1.818 1.693 3.448-1.645 4.59-3.317 2.212-3.241-.687.022-2.501.718-4.03 1.548m-8.97 3.128c-1.63.247-2.75 1.044-2.75 1.957 0 .999.56 1.326 1.593.93.876-.336 2.673-.883 3.993-1.214 2.029-.509 2.615-2.675.605-2.239-.38.082-1.929.337-3.441.566M270 235.921c0 1.123 5.885 2.527 6.793 1.62.357-.357-.013-1.068-.822-1.58-1.904-1.204-5.971-1.231-5.971-.04m9 1.079c0 .55 2.025 1 4.5 1s4.5-.45 4.5-1-2.025-1-4.5-1-4.5.45-4.5 1m-141.502 4.823c-3.381 5.11-4.516 13.532-2.233 16.575 1.275 1.698 1.375 1.309.959-3.707-.396-4.776-.067-6.283 2.224-10.193 3.519-6.005 2.728-8.233-.95-2.675m-25.977 7.805c-6.589 1.941-12.664 3.965-13.5 4.498-1.21.772-1.113.866.479.463 1.1-.278 7.095-1.643 13.323-3.034 11.928-2.662 13.177-3.1 13.177-4.614 0-1.288.034-1.294-13.479 2.687M231 250c.825.533 2.4.945 3.5.914l2-.055-2-.859c-2.99-1.285-5.488-1.285-3.5 0m-6 1c.825.533 2.175.969 3 .969 1.333 0 1.333-.107 0-.969-.825-.533-2.175-.969-3-.969-1.333 0-1.333.107 0 .969m-6.917 1.359c.23.198 1.767.662 3.417 1.031 2.191.49 2.595.397 1.5-.344-1.35-.914-5.92-1.552-4.917-.687M230 255.362c-6.8 1.855-9.697 3.9-4.5 3.177 2.2-.307 6.363-.834 9.25-1.172 3.492-.409 5.25-1.075 5.25-1.991 0-1.692-3.827-1.697-10-.014m-41 .689c-2.475.44-8.012.834-12.305.875-7.226.069-8.301.367-14.5 4.02-12.727 7.5-13.053 8.214-3.195 7 3.575-.44 13.204-1.5 21.399-2.355 16.939-1.768 15.624-1.249 16.594-6.551.831-4.548.812-4.556-7.993-2.989m112.5.476c-1.65.751-18.657 6.62-37.793 13.043-19.135 6.423-34.596 11.874-34.357 12.114.498.497 18.394-3.177 39.65-8.141 21.262-4.966 21.812-5.055 20-3.247-.825.823-11.175 4.231-23 7.574-45.204 12.779-46.891 14.088-8.011 6.217l23.076-4.672-5.782 5.697-5.783 5.697-59 14.604c-70.415 17.429-78.5 19.562-78.5 20.708 0 1.787 12.276 1.339 21.771-.796 6.081-1.366 8.152-1.437 12.65-.43 53.128 11.889 110.423-14.506 137.065-63.145 3.861-7.049 3.591-7.76-1.986-5.223m-36.75 2.135c.688.278 1.813.278 2.5 0 .688-.277.125-.504-1.25-.504s-1.937.227-1.25.504m-51.25 9.467a2908.218 2908.218 0 0 0-61.082 6.508l-22.082 2.581-10.452-3.609c-18.406-6.355-28.085-3.439-27.759 8.364l.125 4.527.714-4.413c1.614-9.982 8.782-11.846 24.941-6.485l11.224 3.723 17.686-2.234c9.727-1.228 31.113-3.743 47.526-5.587 16.413-1.844 30.1-3.612 30.417-3.928.316-.317-.062-.515-.841-.441l-10.417.994m-6.369 18.213c-.612.738-.78 1.736-.372 2.217.407.481-.12.215-1.172-.592-1.687-1.294-1.854-1.29-1.416.033.818 2.474 5.275 1.882 5.649-.75.356-2.508-.985-2.961-2.689-.908m.948 1.241c.048 1.165.285 1.402.604.605.289-.722.253-1.585-.079-1.917-.332-.332-.568.258-.525 1.312m-17.226 11.67c.504.504 1.981.749 3.282.544 2.001-.315 1.861-.455-.916-.916-1.988-.329-2.921-.183-2.366.372M251 300.541c-2.475.733-10.026 2.773-16.78 4.532-6.754 1.76-12.084 3.397-11.843 3.637.477.477 29.563-6.943 33.623-8.577 3.563-1.434.328-1.17-5 .408m-95 4.944c0 1.624 2.209 2.969 3.874 2.359.518-.189-.142-1.153-1.467-2.141-2.1-1.567-2.407-1.595-2.407-.218m-35.182 2.733c.533.533 1.805.793 2.826.576 1.375-.291 1.123-.543-.97-.969-1.825-.373-2.482-.233-1.856.393m97.995 1.465c.721.289 1.584.253 1.916-.079.332-.332-.258-.568-1.312-.525-1.165.048-1.402.285-.604.604" fill-rule="evenodd"/>
<path fill="#8b5766" stroke="#8b5766" d="M222.5 74.879c-2.2 1.01-6.362 4.347-9.248 7.416-3.289 3.498-5.995 5.525-7.25 5.43-2.297-.173-2.504-.823-.802-2.525.933-.933.489-1.2-2-1.2-3.796 0-3.939-.573-.95-3.801l2.25-2.431-6.75.414c-7.55.462-7.647.412-4.5-2.302l2.25-1.941-6 .639c-14.209 1.513-22.583 8.324-26.642 21.672-1.554 5.11-2.495 6.75-3.874 6.75-4.227 0-7.914 3.996-8.027 8.7-.029 1.174-3.189 3.714-9.081 7.3-4.971 3.025-10.41 6.644-12.088 8.042l-3.051 2.541 1.61 5.459C130.489 142.3 133.481 147 135.96 147c1.235 0 2.619 1.231 3.654 3.25 2.198 4.291 3.132 4.828 7.96 4.579 2.693-.139 5.235.506 7.5 1.903 1.884 1.162 4.664 2.421 6.176 2.798 3.897.973 3.438 1.827-2.041 3.798-7.734 2.781-21.898 11.49-28.247 17.368-10.384 9.613-15.437 25.426-9.594 30.021 5.332 4.195 13.632 3.449 13.632-1.225 0-.831 1.489-1.055 4.851-.732 6.142.59 12.269-1.986 18.595-7.817 2.527-2.33 4.717-4.057 4.866-3.839 1.337 1.953 4.32 15.419 4.262 19.238l-.074 4.842-10.5 3.189c-11.803 3.585-26.747 9.408-27.573 10.745-.3.485 1.057.882 3.014.882 3.487 0 4.646 1.21 2.455 2.564-6.463 3.995-6.234 22.284.336 26.886 1.802 1.262 2.03 1.914 1.155 3.311-1.747 2.788-7.542 2.672-14.593-.293-17.983-7.563-33.455-2.598-34.591 11.1-1.104 13.314 8.117 23.925 21.876 25.173 5.317.482 5.763.719 6.288 3.346.724 3.619 5.576 6.304 9.74 5.39 3.604-.792 6.295-4.594 5.648-7.979-.263-1.374-.428-2.517-.366-2.541 2.583-.998 19.867-3.352 20.235-2.756.291.471.663 2.728.826 5.016.369 5.18 3.241 7.783 8.588 7.783 6.923 0 10.6-8.563 5.85-13.619l-2.112-2.248 3.862-.651c2.124-.358 7.124-1.234 11.112-1.946l7.25-1.296v4.323c0 4.883 2.442 7.437 7.112 7.437 6.22 0 9.552-7.398 5.4-11.987-2.41-2.662-.165-2.671 3.215-.013 7.628 6 17.084-2.885 11.129-10.456-1.802-2.291-2.761-2.668-6-2.359-9.301.887-2.127-3.596 8.918-5.573 18.613-3.331 32.45-9.62 35.396-16.086 1.686-3.7.38-5.834-3.245-5.302-2.446.359-3.705-.204-6.334-2.833-2.557-2.557-4.456-3.437-8.604-3.987l-5.323-.706 4.345-3.706 4.346-3.706 6.246 2.833c39.634 17.97 81.844 3.345 84.17-29.164.965-13.491-3.032-21.97-14.88-31.565-6.465-5.235-7.43-6.444-7.699-9.645-.68-8.091 6.29-12.43 18.229-11.348 7.954.72 11.591-.759 11.564-4.704-.084-12.005-28.331-10.73-40.661 1.837-10.607 10.81-9.851 22.946 2.219 35.6 3.001 3.147 5.457 6.119 5.457 6.605 0 1.915-2.691 4.299-6.5 5.761-2.2.844-2.875 1.329-1.5 1.078 1.375-.252 5.573-.986 9.329-1.632 8.701-1.497 8.597-3.661-.592-12.293-9.482-8.906-10.478-10.789-6.446-12.186 2.982-1.034 3.472-.865 6.934 2.39 2.547 2.396 3.423 3.866 2.77 4.652-.653.788.004 1.858 2.086 3.396 10.973 8.114 8.88 27.094-3.882 35.189-9.342 5.925-19.564 7.278-33.245 4.4-10.233-2.152-10.255-2.488-.35-5.436 12.681-3.774 14.063-4.753 6.944-4.917-6.672-.153-14.892-2.36-22.298-5.984-6.458-3.161-6.521-3.722-.5-4.444 13.052-1.565 25.269-9.937 25.228-17.288-.057-10.21-11.346-23.366-29.824-34.759-7.206-4.443-7.889-5.643-3.237-5.686 3.617-.034 31.147-5.809 28.083-5.891-1.375-.036-10.302.8-19.838 1.859-9.535 1.059-17.966 1.685-18.734 1.39-2.171-.833-9.396-12.171-8.07-12.663.769-.285.434-1.771-1.025-4.547L224.166 127l3.167-.012c1.76-.006 7.164 1.973 12.167 4.456 25.69 12.753 60.763 9.293 77.721-7.665 6.327-6.327 7.142-8.683 1.522-4.396-14 10.677-45.224 15.294-65.493 9.682-4.537-1.256-8.25-2.577-8.25-2.935 0-1.442 24.08-8.023 32.945-9.003 11.442-1.265 19.412-4.823 26.055-11.632l4.5-4.613-4.5 2.483c-7.456 4.113-16.469 6.618-27.779 7.721-10.318 1.006-20.412 3.812-34.756 9.662-4.285 1.747-5.389 1.863-7.421.775-2.371-1.269-2.357-1.291 2.034-3.24 17.753-7.88 20.082-35.325 3.722-43.872-3.766-1.968-12.507-1.731-17.3.468m1 3.798c-1.65.879-6.865 5.306-11.59 9.839-8.117 7.789-16.111 13.822-11.66 8.801 2.362-2.664 2.202-3.574-.5-2.843-2.104.57-2.088.506.25-.991 2.462-1.577 2.431-1.594-2.045-1.089-2.5.281-5.425.801-6.5 1.154-1.075.353-.046-.638 2.288-2.203 6.309-4.231 4.874-5.025-3.192-1.766-2.647 1.07 1.576-5.041 4.604-6.662 1.109-.593 1.823-1.272 1.587-1.509-.75-.749-9.088 2.569-13.242 5.271l-4 2.6 2.424-2.639c3.091-3.365 1.468-3.384-3.534-.041-7.2 4.812-13.911 12.356-8.34 9.374 2.856-1.528 9.95-3.979 9.95-3.437 0 .246-2.434 1.821-5.41 3.5-7.144 4.032-14.019 10.172-15.563 13.898-.758 1.832-3.054 4.038-5.885 5.657-8.473 4.843-16.124 9.899-16.133 10.659-.005.412 1.003.803 2.241.868 1.238.064.069.483-2.598.931-5.567.934-6.12 1.289-5.307 3.408.736 1.917 4.466 2.008 6.576.161.869-.76 2.568-1.683 3.778-2.051 2.166-.659 2.175-.62.603 2.632-.877 1.815-2.266 4.08-3.086 5.032-3.706 4.301 7.922 6.593 18.284 3.604l4-1.154-4.18-1.09c-6.122-1.597-6.174-2.431-.091-1.443 5.864.952 10.084.385 11.709-1.573.872-1.052-.771-1.227-8.681-.928-6.574.249-9.105.064-7.757-.568 1.1-.516 4.075-.97 6.61-1.009 6.995-.106 13.89-1.231 13.89-2.265 0-.508-.45-.645-1-.305-2.042 1.262-.918-1.444 1.223-2.943 3.032-2.124 6.623-1.948 10.678.524 1.871 1.14 4.278 1.844 5.349 1.564 1.071-.28 1.642-.202 1.267.173-.374.375-3.2 1.357-6.28 2.182-4.676 1.253-5.719 1.947-6.321 4.209-1.053 3.955-4.648 8.601-7.995 10.332-4.439 2.295-12.734 3.63-15.005 2.414-3.352-1.794-2.149.766 1.76 3.744 7.444 5.673 25.323 2.88 37.354-5.836l4.045-2.93-2.079 4.075c-2.88 5.645-9.24 11.538-14.704 13.625l-4.592 1.753 3.362 2.807c3.64 3.039 2.895 3.866-1.016 1.127-2.286-1.602-2.365-1.593-1.679.194.7 1.824.665 1.825-1.324.025-1.124-1.017-2.043-1.346-2.043-.732 0 1.882 3.882 11.53 5.805 14.427l1.814 2.734 7.201-9.923c3.96-5.458 8.771-13.201 10.69-17.206 2.47-5.155 3.5-6.56 3.525-4.811l.036 2.472 1.395-2.5c2.884-5.165 2.882-14.003-.005-21.5-.605-1.572-.095-1.372 2.385.937l3.154 2.937-.044-4.437c-.039-3.95-.866-7.119-3.476-13.311-.762-1.81-.697-1.814 1.896-.115 1.478.968 2.866 1.58 3.085 1.361.583-.583-6.215-11.168-8.052-12.539-1.338-.998-1.04-1.414 2.076-2.893 3.29-1.561 6.029-4.491 14.871-15.91 3.505-4.526 8.238-7.521 11.894-7.526 1.512-.002 2.75-.454 2.75-1.004 0-1.572-8.179-1.091-11.5.677m9.074 4.204c-.335.541.637 1.152 2.159 1.358l2.767.375-2.776 1.178c-3.81 1.617-4.384 3.824-1.877 7.214l2.115 2.862-3.231-.524c-3.206-.521-8.731 2.472-8.731 4.729 0 1.476 2.177 1.077 4.223-.775 1.817-1.644 1.843-1.601.762 1.25-.615 1.624-2.045 3.942-3.178 5.151l-2.06 2.199 2.415.607c1.329.333 3.698.118 5.266-.478 3.71-1.41 4.415-.625 1.281 1.428-5.657 3.707-13.625 3.708-20.788.004-4.432-2.292-4.632-1.191-.416 2.284 14.768 12.174 35.646 2.046 35.911-17.419.114-8.41-2.24-11.7-8.676-12.125-2.507-.166-4.832.141-5.166.682m-83.347 10.592C110.115 112.165 82.51 147.327 73.448 190c-2.559 12.052-3.243 35.519-1.01 34.662.961-.369 2.831-.942 4.155-1.275 2.256-.566 2.407-1.042 2.407-7.617 0-46.49 26.893-89.64 70.623-113.314 6.589-3.567 7.238-4.216 8.658-8.656 1.853-5.795 2.348-5.777-9.054-.327M256 96.823c0 1.657-.241 3.641-.535 4.408-1.062 2.768 8.44 6.096 14.604 5.115l5.371-.855-4.97-3.122a339.414 339.414 0 0 0-9.72-5.84L256 93.81v3.013m-76.589 6.068c-4.167 2.541-7.411 6.846-7.411 9.834 0 5.394 8.416 8.375 11.443 4.052 1.979-2.825 2.026-5.171.089-4.428-2.964 1.138-4.308-4.863-1.434-6.401 3.219-1.723 6.059-.991 9.502 2.452l3.4 3.4v-2.945c0-6.805-8.732-10.146-15.589-5.964m-24.376 6.043c-1.383 2.584-1.31 4.324.16 3.834 1.418-.472 3.028-5.768 1.754-5.768-.483 0-1.344.87-1.914 1.934m136.071 10.617c-3.233 1.404-3.314 1.562-1.702 3.343 1.465 1.618 2.255 1.731 5.894.838 5.351-1.313 5.37-1.336 3.208-3.726-2.138-2.362-2.898-2.409-7.4-.455M160.5 127.972c-4.4 2.12-7.679 3.894-7.288 3.941 1.396.17 11.339-3.937 14.288-5.901 4.612-3.072 1.828-2.293-7 1.96m-5.75-.4c-3.877 2.103-3.438 2.829.5.827 3.77-1.918 4.437-2.414 3.167-2.359-.505.022-2.155.711-3.667 1.532m24.835 1.176c-.292.292-.291.918.001 1.391.7 1.133 4.414 1.114 4.414-.022 0-1.028-3.631-2.153-4.415-1.369m98.228 15.935c.721.289 1.584.253 1.916-.079.332-.332-.258-.568-1.312-.525-1.165.048-1.402.285-.604.604M124.5 147c-1.319.567-1.489.878-.5.914.825.031 2.175-.381 3-.914 1.828-1.181.249-1.181-2.5 0m45 1.595c-2.75 1.336-3.875 2.138-2.5 1.783 4.29-1.107 6.781-2.214 7.462-3.316.812-1.314 1.052-1.388-4.962 1.533m43.273 5.155c-13.506 13.087-24.176 27.141-31.192 41.085-5.418 10.766-3.848 10.91 1.953.179 6.329-11.707 17.664-26.829 29.434-39.264 11.055-11.681 10.946-12.796-.195-2M117 149c-2.01.644-2.108.806-.5.83 1.1.016 2.9-.357 4-.83 2.548-1.095-.081-1.095-3.5 0m26 .531c0 .843.675 1.791 1.5 2.107 2.279.875 4.546-.353 3.876-2.1-.781-2.035-5.376-2.041-5.376-.007m172.117 1.336c-3.898 1.093-.311 2.817 4.383 2.107l4-.605-2.815-1.184c-1.548-.652-2.898-1.14-3-1.085-.102.055-1.257.4-2.568.767m-7.981 1.206c-3.818 1.529-1.015 4.129 2.957 2.745 2.384-.831 2.743-1.311 1.817-2.427-1.321-1.591-1.555-1.606-4.774-.318m16.864.459c0 .808.413 1.468.918 1.468.505 0 1.692.297 2.637.659 1.165.447 1.577.237 1.28-.654-.675-2.025-4.835-3.292-4.835-1.473m-24.468 3.437c-6.007 3.96-7.973 8.031-3.878 8.031 3.266 0 10.604-7.342 8.97-8.976-1.372-1.372-1.655-1.32-5.092.945M133 160.632c-25.743 6.787-39.938 10.763-39.607 11.095C94.506 172.839 142 161.228 142 159.843c0-1.148-2.479-.93-9 .789m144.25 3.074c-2.825.544-2.913 2.869-.164 4.34 2.321 1.242 2.206 1.295 3.779-1.73 1.838-3.537 1.703-3.635-3.615-2.61m-123.75 6.076c-9.466 4.963-18.5 10.83-18.5 12.016 0 .386 1.012.741 2.25.788 1.238.048 3.09.454 4.116.902 1.68.734 1.745.589.658-1.444-1.598-2.986-.093-4.471 4.404-4.343 2.466.07 3.288-.276 2.923-1.229-.357-.93.113-1.164 1.57-.782 1.464.382 2.079.071 2.079-1.053 0-.878 1.688-2.458 3.75-3.51 3.737-1.908 8.375-6.155 6.655-6.095-.498.017-4.955 2.154-9.905 4.75m14.5-3.176c0 4.791 6.258 22.47 7.51 21.217.204-.204-.451-2.86-1.455-5.903-1.004-3.044-2.398-8.095-3.099-11.227-1.186-5.299-2.956-7.746-2.956-4.087m122.922.54c-1.1 2.055-.793 10.317.429 11.538.322.322 1.878.05 3.457-.605 4.342-1.798 4.33-13.079-.013-13.079-1.763 0-3.13.757-3.873 2.146M240.5 170l-2 .859 2-.029c1.1-.016 3.125-.39 4.5-.83l2.5-.801-2.5-.029c-1.375-.016-3.4.357-4.5.83m-74.5 8.875c0 9.372 2.342 23.811 4.155 25.625.667.667.803-.166.409-2.5-.326-1.925-1.265-9.767-2.087-17.426-1.779-16.577-2.477-18.182-2.477-5.699M247.5 177c4.414 1.123 10.614 1.123 8 0-1.1-.473-4.025-.838-6.5-.811-4.063.043-4.208.122-1.5.811m-13.697 2.203c.662.662 3.339 1.274 5.95 1.36 2.611.086 6.21.48 7.997.876 4.274.947 4.153-.164-.218-1.99-4.39-1.834-15.516-2.033-13.729-.246m-16.475 2.799c-3.473 1.4-7.826 9.609-6.524 12.304.72 1.488 1.082 1.694 1.128.638.084-1.935 4.536-8.067 6.76-9.311 1.327-.743 1.257-.355-.356 1.971-3.259 4.7-3.382 5.113-1.886 6.354 1.162.965 1.929.426 4.135-2.907 3.22-4.865 4.127-4.691 2.006.385-1.982 4.744.185 6.036 4.096 2.441l2.584-2.377-1.182 2.271c-2.083 4.003 1.444 5.867 5.005 2.644.963-.871 3.586-1.831 5.828-2.131 4.653-.624 4.873-1.261 2.028-5.866-4.065-6.576-15.511-9.685-23.622-6.416m-88.818 6.745c-2.792 2.983-7.069 15.353-6.143 17.767 1.031 2.688 2.446 1.555 3.132-2.509.824-4.878 2.235-6.167 1.696-1.549-.413 3.534 1.163 7.544 2.965 7.544.668 0 .867-1.117.513-2.883-1.165-5.827 3.119-14.556 5.424-11.053.52.79.69 2.899.379 4.686-.601 3.45.961 4.413 3.324 2.05 2.965-2.965-.693-12.659-5.766-15.283-2.827-1.462-3.052-1.412-5.524 1.23m189.86 11.503c.331 1.238.609 2.903.616 3.7.01 1.001.335 1.129 1.051.413.707-.707.715-1.884.025-3.7-1.23-3.235-2.534-3.553-1.692-.413m-104.624.836c-6.003 1.414-12.543 5.184-23.129 13.33-6.797 5.231-11.482 8.051-15 9.032-2.815.785-11.275 3.12-18.802 5.189-13.836 3.804-16.268 5.363-8.368 5.363 11.068 0 27.291-6.537 41.958-16.906 16.709-11.812 25.629-15.613 34.087-14.524l4.008.516-4-1.528c-4.454-1.701-5.369-1.742-10.754-.472m104.849 9.048c-.704 4.4-.379 5.469 1.338 4.407 1.273-.786 1.45-8.541.195-8.541-.48 0-1.17 1.86-1.533 4.134M178.5 212.096c-2.2.493-5.031 1.136-6.291 1.429-1.26.294-2.031.953-1.714 1.467.353.571 1.434.577 2.791.015 1.218-.505 4.802-1.42 7.964-2.034 3.162-.613 5.75-1.308 5.75-1.544 0-.65-4.024-.335-8.5.667m-23 3.603c-25.385 5.928-58.033 15.101-57.093 16.041.775.776 42.873-8.736 56.871-12.85 8.072-2.372 8.26-5.068.222-3.191m34.926 7.068c-5.541 3.703-11.565 7.535-13.386 8.514-4.608 2.479-3.113 3.308 1.613.895 5.871-2.998 24.139-16.227 22.311-16.159-.255.01-4.998 3.048-10.538 6.75m24.256-3.78c-6.746 4.278-11.348 11.982-13.097 21.925-.575 3.271-.523 3.342 1.255 1.733 2.645-2.394 18.663-8.679 21.38-8.389 1.8.193 2.754-.696 4.53-4.218 5.761-11.424-2.833-18.176-14.068-11.051m100.702-.299c-2.986 4.815-7.718 9.403-11.884 11.523-5.092 2.591-4.85 2.266-3.528 4.737l1.135 2.12 3.898-2.191c3.266-1.835 3.738-2.489 2.911-4.034-.663-1.239-.647-1.843.049-1.843.569 0 1.035.45 1.035 1 0 1.809 2.907 1.043 4.034-1.064.836-1.562.786-2.448-.207-3.644-1.145-1.38-1.029-1.491.909-.876 2.236.71 6.732-4.47 5.948-6.853-.677-2.056-2.648-1.54-4.3 1.125M257 231.997c0 .432 1.094 1.061 2.43 1.396 1.337.336 3.137 1.316 4 2.18.864.863 1.57 1.088 1.57.498 0-.589.113-1.359.25-1.711.137-.351-1.663-1.204-4-1.894-2.337-.69-4.25-.901-4.25-.469m10.771 4.42c-.523 2.734.337 3.264 6.229 3.839 2.057.201 2.556-.243 2.816-2.506.216-1.874-.142-2.75-1.125-2.75-.792 0-2.786-.269-4.431-.598-2.633-.527-3.049-.287-3.489 2.015m23.403-1.701c-1.574.3-2.14.929-1.75 1.945.317.827.576 1.972.576 2.546 0 1.25 5.703.285 7.595-1.286 3.231-2.681-.196-4.392-6.421-3.205m-79.417 6.459c-10.964 6.3-13.163 8.405-5.635 5.393 4.303-1.722 17.878-10.11 17.878-11.048 0-1.158-1.965-.251-12.243 5.655m66.816-5.414c-.158.157-.074 1.4.187 2.763.709 3.711 9.24 3.782 9.24.077 0-2.13-.514-2.441-4.571-2.763-2.513-.2-4.699-.235-4.856-.077m-141.742 6.491c-4.529 7.21-4.654 13.782-.343 18.093 2.664 2.664 5.027 2.228 3.069-.568-2.175-3.104-1.963-3.775 1.193-3.791 6.848-.034 7.535-.817 4.231-4.825-3.79-4.599-3.942-6.477-.416-5.136 4.19 1.593 6.312 1.094 2.935-.69-4.472-2.363-6.429-4.355-5.826-5.929 1.23-3.205-2.371-1.089-4.843 2.846m-24.59 7.502c-5.092 1.409-9.097 2.724-8.899 2.921.499.5 18.819-3.727 20.658-4.766 2.823-1.596-2.131-.818-11.759 1.845m118.62.279c2.166 1.805 6.139 2.721 6.139 1.416 0-.606-6.468-3.469-7.718-3.416-.43.019.28.919 1.579 2M224 251c2.558 2.001 6 2.666 6 1.161 0-1.066-4.552-3.168-6.797-3.139-1.34.018-1.17.439.797 1.978m-17.75.22c-1.238.597-2.25 1.443-2.25 1.881 0 .894 5.981-.902 7.45-2.237 1.348-1.226-2.461-.964-5.2.356m10.325.658c-.298.483.856 1.158 2.566 1.5 4.694.939 5.558.709 3.418-.91-2.165-1.637-5.154-1.932-5.984-.59m-28.075 3.735c-4.4.735-10.7 1.261-14 1.17-5.157-.142-6.669.266-10.763 2.91-2.62 1.691-6.007 3.59-7.528 4.22-1.52.63-3.358 2.096-4.084 3.258-1.29 2.066-1.213 2.099 3.528 1.492 2.666-.342 11.822-1.318 20.347-2.168 19.817-1.978 21-2.229 21-4.449 0-.988.281-3.202.625-4.921.344-1.719.231-3.062-.25-2.986-.481.077-4.475.74-8.875 1.474m40-.195c-2.2.706-6.925 2.662-10.5 4.347-7.661 3.61-5.372 4.265 4.161 1.19 3.486-1.124 8.974-2.447 12.195-2.939 6.393-.976 7.174-1.349 6.185-2.949-.878-1.422-7.082-1.241-12.041.351m72.875 1.616c-2.269.978-18.604 6.597-36.301 12.488-17.696 5.89-32.01 10.875-31.808 11.077.417.418 26.06-5.034 44.703-9.504 6.858-1.645 12.559-2.901 12.668-2.791 1.623 1.623-4.84 4.434-19.768 8.597-24.31 6.781-39.872 11.43-39.5 11.801.174.174 11.475-1.949 25.114-4.719 13.639-2.769 24.949-4.885 25.132-4.702.183.184-2.243 2.872-5.391 5.974l-5.724 5.64-68.474 17.053c-37.66 9.378-68.598 17.052-68.75 17.052-.152 0-.276.517-.276 1.148 0 1.551 15.837.473 22.337-1.521 4.325-1.326 5.594-1.313 12 .126 9.361 2.103 38.248 2.322 48.163.365 37.514-7.403 69.508-30.351 87.023-62.416 4.316-7.902 4.294-8.014-1.148-5.668m-65.264 6.201c-5.544 2.665-8.32 3.247-21 4.402-18.984 1.728-40.667 4.033-60.554 6.436-22.132 2.675-26.163 2.552-35.216-1.073-19.75-7.908-33.963 1.325-25.925 16.843 2.255 4.353 3.049 3.515 1.097-1.157-5.44-13.021 6.691-19.374 23.748-12.436 7.992 3.251 15.871 3.571 31.959 1.297 5.654-.799 18.605-2.414 28.78-3.59 50.987-5.889 53.97-6.473 62.078-12.155 3.415-2.393 2.355-2.087-4.967 1.433m-96.473 5.265c-.383 1 .041 1.5 1.271 1.5 1.015 0 2.406-.675 3.091-1.5 1.05-1.266.852-1.5-1.271-1.5-1.383 0-2.774.675-3.091 1.5m66.612 16.867c-2.622 1.29-2.982 4.415-.614 5.324 2.346.9 4.864-1.023 4.864-3.717 0-2.704-1.143-3.136-4.25-1.607M190 297.755c0 1.66 2.872 3.508 4.487 2.888.832-.319 1.513-1.03 1.513-1.58s-.681-.739-1.513-.42c-.832.32-2.182.025-3-.654-.835-.693-1.487-.796-1.487-.234m50 5.285c-9.625 2.657-20.416 5.612-23.98 6.568-3.564.956-5.941 1.918-5.283 2.138 2.294.764 50.263-11.918 50.263-13.29 0-.974-4.12-.074-21 4.584m-83.532-.005c-1.793 1.981-1.787 2.091.228 4.105 2.574 2.574 6.044 1.744 6.896-1.65 1.175-4.683-3.614-6.333-7.124-2.455M119 305.774c0 1.826 3.172 4.374 4.711 3.784.799-.307 1.641-.558 1.871-.558.23 0 .418-.498.418-1.107 0-.616-.729-.827-1.645-.476-.924.355-2.456-.104-3.5-1.048-1.02-.923-1.855-1.191-1.855-.595" fill-rule="evenodd"/>
<path fill="#1f1629" stroke="#1f1629" d="M222.48 75.357c-2.878 1.341-6.997 4.537-9.653 7.491-3.319 3.691-5.369 5.152-7.23 5.152-3.034 0-3.281-.76-.847-2.608 1.55-1.177 1.301-1.332-2.187-1.36L198.626 84l2.937-3.133 2.937-3.134-7.361.585c-7.251.576-7.334.555-5.595-1.367 1.719-1.899 1.673-1.951-1.73-1.951-7.121 0-19.784 5.621-18.251 8.101.322.522.034.825-.64.674-1.695-.38-5.712 5.695-7.031 10.634-1.865 6.981-2.767 8.591-4.815 8.591-2.941 0-6.971 4.097-7.377 7.5-.269 2.262-1.322 3.552-4.279 5.245-2.156 1.235-3.814 2.682-3.683 3.214.131.533-.386.73-1.149.437-1.657-.636-3.062 1.194-1.607 2.093 1.325.819 5.23-1.92 4.262-2.989-.409-.451-.242-.534.372-.184 1.573.897 12.384-5.156 12.384-6.934 0-2.401 9.102-11.413 14.75-14.606 6.136-3.468 6.84-4.49 1.5-2.181-7.456 3.225-7.969 2.903-3.25-2.041 4.658-4.879 12.641-10.246 13.687-9.2.328.328-.48 1.479-1.795 2.559-1.386 1.137.498.517 4.478-1.475 10.186-5.097 11.878-4.758 5.88 1.176-2.471 2.446-3.068 3.461-1.75 2.978 7.525-2.755 9.701-1.464 3.74 2.219-2.057 1.272-3.01 2.095-2.118 1.831 4.21-1.248 10.878-1.794 10.878-.89 0 .538-.978 2.222-2.173 3.741l-2.173 2.763 2.341-1.253c1.288-.689 5.777-4.783 9.977-9.097 4.2-4.315 9.285-8.533 11.3-9.375C227.373 76.817 236 76.457 236 78c0 .55-1.238 1.002-2.75 1.005-5.549.01-12.712 6.07-15.74 13.316-1.925 4.609-6.071 9.401-9.802 11.33l-3.054 1.579 2.423 1.856c5.95 4.558 16.551 6.192 21.973 3.388 2.993-1.548 3.983-2.728 1.7-2.028-.687.211-3.398.64-6.024.953l-4.774.569 2.11-2.234c1.161-1.229 2.992-3.457 4.07-4.952l1.958-2.718-3.295 1.333c-1.812.732-4.766 1.608-6.564 1.946-3.266.614-3.267.612-1.345-1.452 1.059-1.136 3.355-4.97 5.102-8.519 8.898-18.073 26.666-15.686 24.704 3.319-1.656 16.049-18.643 25.537-32.177 17.973l-4.575-2.557 2.1 2.949c1.154 1.621 2.968 3.413 4.03 3.981 1.061.568 1.93 1.479 1.93 2.024 0 .545-1.401.266-3.114-.62-2.935-1.517-2.819-1.247 2 4.71 5.993 7.406 6.383 8.795 1.695 6.029l-3.42-2.017.488 5.668.488 5.669-1.8-2.75c-2.473-3.779-2.671-3.629-4.98 3.773l-2.034 6.522 2.288-2.149 2.287-2.149.683 2.721c.606 2.413-.169 3.59-6.829 10.377-8.044 8.197-20.122 23.595-21.219 27.052-1.111 3.501-2.229 2.462-6.471-6.013-4.763-9.515-5.449-13.378-1.829-10.289 1.817 1.551 1.981 1.58.877.155-1.567-2.024-.885-2.217 2.206-.625 1.604.827 1.303.199-1.132-2.366l-3.317-3.491 4.317-2.624c2.374-1.444 5.842-3.952 7.707-5.575l3.392-2.951-6.356 2.568c-11.543 4.662-17.701 5.148-24.303 1.919-8.767-4.29-8.997-6.109-.779-6.161 8.613-.054 13.42-2.333 16.689-7.912 1.356-2.314 2.466-4.947 2.466-5.851 0-.979 1.112-1.888 2.75-2.249 4.606-1.016 4.888-1.271 1.5-1.353-2.287-.056-3.25-.556-3.25-1.687 0-1.243.625-1.464 2.75-.97 2.04.474 2.363.377 1.25-.376-2.287-1.548-8.381-1.239-10.559.536-1.657 1.35-1.685 1.501-.191 1.031 2.129-.669 2.362 1.215.25 2.025-.825.317-1.5 1.133-1.5 1.814 0 2.424-3.667 4.548-8.079 4.68l-4.421.131 3.5.7 3.5.7-4.797 2.236c-7.772 3.623-15.203 4.382-21.067 2.153-3.292-1.252-3.325-3.145-.136-7.837 4.748-6.988 2.611-8.499-2.906-2.054l-3.562 4.161-1.61-3.855c-1.941-4.646-.468-6.399 5.519-6.567 3.14-.088 3.265-.182 1.059-.802l-2.5-.704 2.801-1.845c1.888-1.244 2.472-2.176 1.791-2.857-1.179-1.179-9.49 3.856-8.638 5.233.288.467-.258.787-1.215.712-5.104-.402.435 17.948 5.737 19.008 1.778.356 3.025 1.52 3.786 3.534.65 1.722 1.593 2.72 2.21 2.338.593-.366.954-.07.803.659-.199.956 1.113 1.331 4.725 1.348 3.467.017 6.073.719 8.5 2.289 1.925 1.245 4.738 2.528 6.25 2.851 2.667.568 3.896 2.336 1.625 2.336-2.474 0-12.798 5.316-12.201 6.282.36.581.147.725-.49.332-1.58-.977-7.412 2.208-6.562 3.583.428.693.23.829-.525.363-1.488-.92-9.409 4.126-8.581 5.466.323.523-.035.712-.797.42-1.996-.766-9.444 7.711-12.347 14.052-5.393 11.781-4.09 18.105 4.206 20.396 4.47 1.234 7.134.103 8.014-3.403.504-2.01.944-2.275 2.446-1.471 4.887 2.616 17.101-1.997 22.961-8.672 1.718-1.957 3.28-3.398 3.471-3.203 1.146 1.174 3.895 13.364 4.252 18.855l.422 6.5-8.322 2.306c-4.577 1.268-13.271 4.245-19.32 6.616-10.378 4.067-10.816 4.35-7.75 5.023 1.786.393 3.242.791 3.235.884-.007.094-1.357 2.822-3 6.062-4.666 9.202-3.393 20.1 2.671 22.863 2.685 1.223 2.773 1.594.95 3.996-1.951 2.57-8.531 2.217-15.878-.854-18.501-7.732-33.285-1.75-33.187 13.431.085 13.29 10.379 23.173 24.139 23.173 2.137 0 3.318.486 3.318 1.365 0 3.573 4.123 6.746 8.363 6.437 2.794-.204 4.048-.732 3.862-1.626-.151-.729.164-1.054.7-.722 1.438.888 3.212-3.057 2.556-5.683-.544-2.178-.144-2.339 9.723-3.931 10.808-1.743 12.321-1.414 11.385 2.478-.633 2.632 1.323 7.564 3.45 8.703 8.301 4.442 16.651-5.06 10.886-12.389-2.434-3.095-2.635-2.987 8.575-4.622 4.4-.643 8.975-1.397 10.167-1.676 2.005-.471 2.127-.213 1.633 3.462-.868 6.472 4.261 10.084 10.016 7.054 4.249-2.237 5.104-7.653 1.672-10.592-1.872-1.603-1.889-1.767-.25-2.35 1.141-.406 2.538.205 3.964 1.733 4.635 4.965 12.298 1.762 12.298-5.141 0-5.112-3.111-7.883-8.099-7.214-3.512.471-3.777.35-2.885-1.316 1.182-2.209 1.262-2.235 16.984-5.519 6.875-1.436 15.223-3.905 18.552-5.487 11.979-5.694 17.612-14.464 9.29-14.464-2.79 0-4.167-.646-5.8-2.721-1.588-2.017-3.681-3.039-8.092-3.95-4.874-1.007-8.193-2.815-5.2-2.834.412-.002 2.225-1.387 4.029-3.077l3.278-3.073 8.235 3.537c16.079 6.906 36.444 9.031 50.603 5.28 32.841-8.702 42.963-45.328 18.026-65.225-8.468-6.757-10.318-9.352-9.458-13.271 1.441-6.557 7.502-9.374 19.312-8.974 7.412.251 8.574.051 9.852-1.696 1.707-2.334 1.393-6.116-.475-5.721-.715.151-1.01-.196-.654-.771 1.137-1.841-6.152-4.004-13.491-4.004-18.184 0-31.55 11.008-31.473 25.922.04 7.902 1.505 10.984 8.72 18.346 2.885 2.944 3.969 3.914 2.409 2.155-3.402-3.834-1.615-5.409 2.322-2.046 1.367 1.168.242-.348-2.5-3.368s-5.306-5.388-5.699-5.262c-.393.126-.421-.553-.063-1.509.587-1.565.459-1.594-1.286-.286-1.149.861-1.471.923-.791.153.726-.821.953-3.441.617-7.137-1.357-14.972 16.415-27.123 33.63-22.994 5.503 1.32 7.184 2.717 4.985 4.144-2.058 1.335-5.43.574-5.057-1.142.258-1.183.07-1.228-.95-.226-1.618 1.591-7.098 1.623-8.671.05-.933-.933-1.2-.837-1.2.433 0 2.178-3.698 3.263-5.637 1.653-1.278-1.06-1.483-1.019-1.202.245.722 3.247-5.319 8.382-9.661 8.213l-4-.156 3.5.656c3.415.64 3.506.779 3.735 5.757.225 4.881.087 5.18-3.211 6.956-4.422 2.381-3.837 3.019.939 1.023 3.659-1.529 3.699-1.519 7.089 1.773 3.354 3.258 3.379 3.344 1.533 5.325-1.845 1.98-1.829 2.042.946 3.681 14.37 8.489 7.853 32.677-10.671 39.608-8.294 3.103-33.513 1.83-35.76-1.805-.232-.376 4.151-2.008 9.739-3.627l10.161-2.944-7.5-1.263c-8.562-1.442-14.566-3.5-20.935-7.175l-4.434-2.559 6.934-1.267C268.099 205.856 279 198.131 279 191.012c0-8.709-11.77-22.425-28.328-33.012-9.516-6.085-10.18-6.954-5.422-7.1 3.119-.095 3.15-.134.75-.964-1.77-.613-.895-.736 3-.422 4.686.378 5.056.294 2.5-.572-1.65-.558-5.799-.739-9.219-.402-6.881.678-6.774.742-14.031-8.339-3.576-4.474-4.023-5.712-1.75-4.839 1.943.745 1.896.335-.5-4.362-1.1-2.156-2-4.063-2-4.237 0-1.323 9.27 1.038 13.221 3.367 23.782 14.023 62.73 10.713 79.902-6.79l5.377-5.481-7.5 4.012c-19.712 10.543-46.551 13.036-66.316 6.159l-5.184-1.804 3-1.2c10.527-4.21 21.169-7.033 29.832-7.914 10.092-1.027 23.545-5.884 22.223-8.024-.323-.522-.061-1.275.583-1.673.774-.478.902-.288.377.56-.532.862-.336 1.118.596.78.764-.278 1.265-1.045 1.114-1.704-.151-.66.118-.957.597-.661.48.296 2.178-.901 3.775-2.66 1.597-1.759 2.003-2.494.903-1.632-2.157 1.69-11.138 5.643-15.993 7.04-1.646.474-8.575 1.55-15.398 2.391-10.175 1.254-14.801 2.432-25.723 6.55-12.563 4.737-13.474 4.938-16.101 3.548-2.581-1.365-2.638-1.521-.785-2.131 7.365-2.425 11.745-6.072 14.997-12.489 10.305-20.337-5.734-40.629-25.017-31.65M210.872 86.75c-1.243 1.586-1.208 1.621.378.378.963-.755 1.75-1.543 1.75-1.75 0-.823-.821-.294-2.128 1.372m-64.474 8.62c-12.388 6.104-24.195 14.201-32.765 22.469-7.967 7.686-17.804 20.075-16.989 21.394.376.608.2.789-.404.415-1.382-.854-5.61 5.945-4.656 7.488.459.742.292.905-.455.444-.791-.489-2.796 2.675-6.079 9.595-8.846 18.646-12.901 35.024-13.297 53.704-.28 13.198-.108 13.738 3.935 12.395l2.812-.935.653-11.919c2.528-46.182 26.303-83.421 68.492-107.279 6.572-3.716 9.315-5.845 9.746-7.563.33-1.316.876-3.109 1.212-3.985.938-2.444-.454-2.013-12.205 3.777M256 98.722c0 5.31 6.527 8.736 14.34 7.527l4.84-.749-7.84-4.709C256.062 94.018 256 94.007 256 98.722m-74.745 3.767c-7.381 3.208-9.683 7.848-6.729 13.561 1.607 3.109 4.118 3.746 7.54 1.915 3.704-1.983 2.015-5.743-2.288-5.093-.397.06-.313-.965.186-2.279.5-1.313.613-2.683.251-3.045-1.087-1.086 2.064-2.516 5.58-2.533 2.18-.01 4.127.816 5.75 2.44 2.82 2.819 3.028 2.554 1.03-1.31-2.377-4.597-6.267-5.853-11.32-3.656m-25.246 5c-.68.819-1.57 1.283-1.978 1.03-.408-.252-.526.672-.262 2.053.618 3.231 2.073 2.71 3.782-1.355 1.412-3.359.583-4.288-1.542-1.728m135.165 12.355c-2.869 1.541-3.118 1.958-1.812 3.041 1.728 1.435 10.995.501 10.059-1.013-.308-.498-.927-.677-1.377-.399-.45.278-.756-.26-.681-1.195.191-2.37-2.263-2.542-6.189-.434M159.5 128.595c-2.75 1.336-3.875 2.141-2.5 1.79 2.854-.73 10.017-4.317 8.5-4.258-.55.022-3.25 1.132-6 2.468m-3 5.405-4 .716 4 .054c2.2.03 6.25-.296 9-.724l5-.779-5 .009c-2.75.004-6.8.33-9 .724m60.911 15.043c-14.281 12.208-30.096 32.5-37.035 47.52-4.153 8.988-4.4 13.108-.312 5.187 1.632-3.162 3.197-5.75 3.478-5.75.28 0-.21 1.392-1.09 3.093-.88 1.701-1.441 3.252-1.247 3.446.819.818 2.747-1.45 6.835-8.039 5.711-9.205 16.413-23.456 23.454-31.234 5.251-5.8 6.442-9.223 2.711-7.791-1.293.496-1.249.231.235-1.408 1.005-1.111 2.287-1.736 2.848-1.389.562.347.727.155.367-.427s1.033-2.413 3.096-4.068c2.062-1.656 3.484-3.277 3.16-3.602-.323-.325-3.248 1.683-6.5 4.462M142 147.566c0 2.056 2.433 4.434 4.535 4.434 2.538 0 2.908-.682 1.858-3.418-.559-1.457-6.393-2.384-6.393-1.016M254 148c3.419 1.095 6.048 1.095 3.5 0-1.1-.473-2.9-.846-4-.83-1.608.024-1.51.186.5.83m-108.731 5.693c.973.254 2.323.237 3-.037.677-.274-.119-.481-1.769-.461-1.65.02-2.204.244-1.231.498m78.733 2.989c-6.985 1.46-35.548 37.846-33.631 42.842 1.279 3.333 7.064-1.314 16.839-13.524 3.644-4.552 5.288-5.753 9.537-6.97 5.882-1.684 6.824-3.42 4.662-8.593-1.689-4.043-1.608-4.077 3.079-1.311 2.704 1.595 4.652 1.998 7.807 1.614 4.195-.509 4.198-.507 1.205.801-2.895 1.266-2.789 1.31 3 1.255 6.389-.061 17.014 1.785 19.5 3.388 1.281.826 1.263.895-.122.472-3.741-1.142-10.823-1.808-11.932-1.123-1.401.866 5.202 3.396 7.844 3.006.941-.138 1.142-.057.448.18-.694.238-.978.893-.63 1.456.412.666-.065.651-1.358-.041-3.343-1.789-10.286-3.002-13.862-2.422-4.206.682-4.36 1.916-.35 2.796 1.671.367 5.608 3.035 8.75 5.929 6.526 6.012 9.929 6.503 5.584.807l-2.715-3.561 5.629 4.159c6.716 4.961 8.162 5.311 4.151 1.004-1.615-1.735-2.262-2.922-1.437-2.637 5.351 1.844 5.956 1.835 7.91-.119 3.675-3.675.78-7.994-9.41-14.041-2.138-1.269-1.286-1.173 5.399.605 1.501.399 2.166.26 1.776-.371-.343-.555-2.773-1.549-5.399-2.21a403.583 403.583 0 0 1-7.776-2.035l-3-.834 3.5-.122c3.481-.122 3.457-.151-4.304-5.18-7.963-5.161-13.862-6.649-20.694-5.22m-104.988 7.921c-16.127 4.184-23.403 6.582-15.014 4.949 7.314-1.423 37-8.764 37-9.149 0-1.091-6.024.06-21.986 4.2M168 166.559c0 1.992-.418 3.301-.949 2.972-4.067-2.513-.787 30.789 3.641 36.969 1.335 1.864 1.404 1.762 1.01-1.5-.232-1.925-.229-2.713.007-1.75.689 2.804 1.875 2.04 3.236-2.084 1.172-3.552 1.008-4.522-2.234-13.168-2.307-6.153-3.667-8.68-3.989-7.416-.27 1.055-.522-.782-.561-4.082l-.072-6 2.277 7c1.252 3.85 2.823 8.012 3.491 9.25 1.361 2.523 3.688 3.112 2.761.698-.341-.89-.173-1.291.393-.941 1.287.795 1.247.154-.184-2.988-.876-1.923-1.404-2.252-2.081-1.297-.583.821-.686.265-.287-1.556.381-1.739.243-2.6-.357-2.229-.56.346-1.749-2.824-2.781-7.416-1.907-8.483-3.321-10.383-3.321-4.462m111.97-1.504c-.605 1.131-.952 2.5-.77 3.044.181.543.846-.382 1.478-2.056 1.313-3.481.92-4.03-.708-.988m-119.525-.144c.664 1.074-10.388 6.242-11.663 5.455-.703-.435-.8-.205-.272.649.599.97.358 1.149-.898.666-.944-.362-1.481-.279-1.195.185.287.464-2.389 2.818-5.948 5.231-6.67 4.524-7.742 5.873-4.719 5.944.963.022 3.325 1.39 5.25 3.04 2.736 2.344 3.571 2.662 3.824 1.454.29-1.38.554-1.384 2.473-.04 4.052 2.839 6.043 2.008 5.381-2.245l-.583-3.75 1.953 2.361 1.952 2.361v-2.661c0-1.463-.702-4.018-1.561-5.678-.858-1.66-1.344-3.551-1.079-4.201.3-.735.524-.615.592.318.061.825 1.267 2.343 2.68 3.373l2.57 1.873-1.154-2.373c-.995-2.047-.822-1.983 1.26.468l2.413 2.842.697-6.159c.383-3.388.921-6.745 1.196-7.46.282-.734-.397-1.536-1.559-1.839-1.132-.296-1.856-.212-1.61.186m115.125-.024c-.301.487.235 1.5 1.191 2.25 1.555 1.218 1.601 1.186.436-.303-1.104-1.413-1.028-1.738.5-2.134 1.568-.407 1.582-.483.112-.584-.93-.064-1.938.283-2.239.771m-37.07 4.16c-1.394.631-.788.721 2 .297 2.2-.335 4.188-.775 4.417-.977.859-.757-4.497-.19-6.417.68m-140.687 1.636c.721.289 1.584.253 1.916-.079.332-.332-.258-.568-1.312-.525-1.165.048-1.402.285-.604.604m144 1c.721.289 1.584.253 1.916-.079.332-.332-.258-.568-1.312-.525-1.165.048-1.402.285-.604.604m-34.395 9.499c-2.495 2.3-6.386 6.462-8.647 9.25l-4.11 5.068 4.919-5c2.705-2.75 6.941-6.912 9.412-9.25 2.472-2.338 4.15-4.25 3.729-4.25-.421 0-2.807 1.882-5.303 4.182m9.546.419c-4.661 1.405-9.093 14.368-5.397 15.786 1.62.622 2.829-.937 1.897-2.445-.616-.997 3.931-8.942 5.118-8.942.305 0-.399 1.338-1.563 2.974-1.69 2.373-1.899 3.382-1.033 5 1.207 2.255 4.014 2.757 4.014.717 0-.72.7-2.182 1.555-3.25 1.502-1.875 1.519-1.867.5.243-2.17 4.492 1.073 7.111 4.13 3.336 1.696-2.095 1.702-2.093 1.509.687-.227 3.27 3.111 4.437 5.266 1.841.841-1.013 2.982-1.548 6.194-1.548 7.691 0 7.48-4.106-.57-11.098-3.702-3.217-4.356-3.412-12-3.583-4.446-.099-8.775.028-9.62.282m91.6 3.295c-.341.552.293 1.492 1.408 2.089 2.911 1.558 8.008 10.942 8.019 14.765.009 3.107 2.941 4.788 4.356 2.497.676-1.093-2.049-8.543-3.561-9.734-.707-.557-1.286-1.63-1.286-2.384 0-1.886-8.159-8.49-8.936-7.233m-15.74 2.645c.916 1.215 2.25 1.984 2.964 1.71 1.646-.632-1.049-3.918-3.213-3.918-1.147 0-1.1.42.249 2.208m-164.953 1.42c-1.204 1.628-2.637 2.684-3.185 2.345-.547-.338-.691-.123-.319.478.371.602-.072 3.782-.986 7.069-1.759 6.328-1.424 9.147 1.088 9.147 1.037 0 1.568-1.048 1.646-3.25l.115-3.25.736 3.801c1.363 7.04 4.981 7.341 5.019.417.016-3.031 2.494-9.718 3.6-9.718.378 0 .414 1.992.08 4.426-.896 6.538 4.396 7.126 5.819.648 2.287-10.414-8.061-19.623-13.613-12.113m178.862-.837c.679.684 1.486.991 1.793.683.308-.308-.247-.867-1.233-1.243-1.425-.542-1.54-.428-.56.56m6.042 6.249c1.499 2.429 2.84 4.312 2.98 4.184.788-.72-2.257-6.755-3.835-7.6-1.531-.819-1.376-.2.855 3.416m-9.775-.995c0 .207.788.995 1.75 1.75 1.586 1.243 1.621 1.208.378-.378-1.307-1.666-2.128-2.195-2.128-1.372m3.564 4.915c.376.986.935 1.541 1.243 1.233.308-.307.001-1.114-.683-1.793-.988-.98-1.102-.865-.56.56m-5.798 1.493c-.328 1.255-2.047 2.881-3.925 3.712l-3.341 1.478 4.5-.627c4.748-.662 6.553-1.349 3.544-1.349-1.458 0-1.564-.271-.572-1.466.669-.807 1.028-2.033.798-2.725-.231-.691-.682-.252-1.004.977m-88.048 1.306c-5.802 1.366-9.282 3.412-21.397 12.584l-11.18 8.463-15.32 4.036a5288.833 5288.833 0 0 0-19.133 5.068c-5.143 1.392-3.768 2.289 6.39 4.169 15.245 2.822 22.989 1.795 33.026-4.381 4.051-2.493 5.361-2.898 6.004-1.859.612.987 2.307-.108 6.607-4.268 14.412-13.941 19.971-17.248 29.827-17.746 5.908-.298 8.257.085 13.506 2.206 3.495 1.411 6.552 2.369 6.793 2.129.556-.557-13.85-7.493-15.563-7.493-.703 0-1.278-.397-1.278-.881 0-2.359-11.472-3.631-18.282-2.027M306 202c-2.327.745-2.349.808-.309.9 1.205.055 2.469-.35 2.809-.9.34-.55.479-.955.309-.9a2527 2527 0 0 1-2.809.9m-96.149 6.266c-2.008 1.229-6.058 3.885-9 5.903a2600.727 2600.727 0 0 1-14 9.5c-4.757 3.207-9.482 6.4-10.5 7.095-1.018.696-.276.524 1.649-.382 1.925-.905 9.108-5.524 15.962-10.264 6.855-4.74 14.505-9.848 17-11.351 2.496-1.503 4.088-2.733 3.538-2.733-.55-.001-2.642 1.004-4.649 2.232m108.816-1.599c-1.397 1.396-.686 8.112.923 8.729 2.57.986 3.41-.234 3.41-4.955 0-4.298-2.036-6.071-4.333-3.774M182 211.064c-7.42 1.394-12 2.952-12 4.083 0 .587.589.841 1.308.565.72-.276 5.107-1.267 9.75-2.201 4.643-.934 8.87-2.107 9.392-2.605 1.143-1.09-2.128-1.029-8.45.158m40.942.874c-10.997 3.381-20.793 15.057-24.363 29.037-.909 3.561-2.536 7.415-3.616 8.564-3.22 3.428-2.342 3.417 5.684-.072 5.116-2.224 10.06-3.55 14.938-4.007 7.124-.668 7.415-.805 12.747-6.01 13.428-13.111 9.698-32.151-5.39-27.512m91.539 7.27-2.75 4.156 2.245 1.818c3.209 2.598 3.894 2.326 6.005-2.388 2.018-4.507 1.918-5.243-.921-6.762-1.52-.813-2.294-.277-4.579 3.176m-172.668.475c.721.289 1.584.253 1.916-.079.332-.332-.258-.568-1.312-.525-1.165.048-1.402.285-.604.604m-4 1c.721.289 1.584.253 1.916-.079.332-.332-.258-.568-1.312-.525-1.165.048-1.402.285-.604.604M125 223.533c-9.981 2.802-24.616 7.659-21 6.969 16.226-3.094 32.977-7.08 31-7.377-2.32-.347-2.356-.432-.5-1.179 4.033-1.624-1.144-.759-9.5 1.587m68.872-.783c-1.243 1.586-1.208 1.621.378.378 1.666-1.307 2.195-2.128 1.372-2.128-.207 0-.995.787-1.75 1.75m-55.059-.067c.721.289 1.584.253 1.916-.079.332-.332-.258-.568-1.312-.525-1.165.048-1.402.285-.604.604m-9.063.979c.688.278 1.813.278 2.5 0 .688-.277.125-.504-1.25-.504s-1.937.227-1.25.504m-3.937 1.021c.721.289 1.584.253 1.916-.079.332-.332-.258-.568-1.312-.525-1.165.048-1.402.285-.604.604M160.5 225c-1.319.567-1.489.878-.5.914.825.031 2.175-.381 3-.914 1.828-1.181.249-1.181-2.5 0m17.941.555c-1.864 1.494-1.852 1.512.309.465 1.238-.6 2.25-1.3 2.25-1.555 0-.765-.519-.544-2.559 1.09m130.634.572-2.425 1.977 2.571 2.571c2.658 2.659 4.073 2.513 5.735-.593.739-1.38.445-2.293-1.245-3.869-2.205-2.057-2.217-2.057-4.636-.086m-6.575 4.545c-1.65.876-3.154 1.724-3.342 1.885-.188.161.229 1.872.927 3.802 1.217 3.366 1.374 3.455 3.844 2.177 4.844-2.504 6.261-4.819 4.494-7.342-1.807-2.581-2.01-2.598-5.923-.522m-122.059.883c-1.864 1.494-1.852 1.512.309.465 1.238-.6 2.25-1.3 2.25-1.555 0-.765-.519-.544-2.559 1.09m66.059.484-7 1.673 3.84 1.631c4.146 1.76 5.824 1.343 9.082-2.257 2.602-2.875 2.101-2.964-5.922-1.047m9.5-.282c0 1.083-1.178 3.148-2.617 4.587l-2.616 2.617 2.681 1.019c4.366 1.66 8.031 1.203 10.378-1.294 3.103-3.303 2.753-5.425-1.076-6.531-1.788-.516-4.038-1.26-5-1.654-1.317-.538-1.75-.227-1.75 1.256m37.199 2.229c-4.271 1.012-4.243.969-3.522 5.412.584 3.595.773 3.762 3.624 3.192 3.775-.755 5.699-2.318 5.699-4.631 0-2.303-1.027-4.989-1.857-4.857-.354.057-2.128.454-3.944.884M267 236.142c0 1.327-.666 3.363-1.479 4.525-1.428 2.039-1.321 2.136 3.088 2.797 4.892.734 7.695-.695 8.669-4.418.756-2.892-.548-3.984-5.582-4.674-4.475-.614-4.696-.53-4.696 1.77m11.358 3.358-.041 4.5h4.366c3.685 0 4.508-.373 5.276-2.393 1.77-4.654.328-6.607-4.876-6.607h-4.684l-.041 4.5m-142.066 3.25c-5.398 9.182-2.598 20.445 5.014 20.171 1.207-.043 1.632-.306.944-.583-2.786-1.125-.907-2.081 5.214-2.652 4.576-.428 8.006-1.489 11.75-3.636l5.286-3.031-6.5-.136-6.5-.135 7.253-1.21c8.353-1.394 10.399-2.538 4.539-2.538-6.205 0-11.2-1.154-8.745-2.02 1.893-.669-9.712-7.731-11.797-7.179-.412.11-.75-.251-.75-.801 0-2.615-3.204-.51-5.708 3.75m75.149-3.195c-1.83 1.467-1.798 1.487.559.365 3.061-1.458 3.628-1.92 2.358-1.92-.537 0-1.849.7-2.917 1.555m-6.882 2.778c-1.58 1.155-1.605 1.334-.191 1.334.897 0 1.632-.402 1.632-.893 0-.49.52-.571 1.155-.179.715.443.883.275.44-.44-.885-1.433-.828-1.436-3.036.178M116.5 249c-1.261.542-1.445.859-.5.859.825 0 2.4-.386 3.5-.859 1.261-.542 1.445-.859.5-.859-.825 0-2.4.386-3.5.859m113.5 1c2.521 1.972 7 2.715 7 1.161 0-1.17-4.641-3.166-7.297-3.139-2.172.022-2.167.05.297 1.978m-9-.599c0 1.264 6.832 4.184 8.455 3.615 1.763-.619 1.73-.773-.506-2.339-2.081-1.458-7.949-2.4-7.949-1.276M131.232 253c0 1.925.206 2.713.457 1.75.252-.963.252-2.537 0-3.5-.251-.963-.457-.175-.457 1.75m74.076-1.806c-2.741 1.325-4.213 4.403-1.569 3.282.968-.41 3.215-1.277 4.992-1.926 1.778-.649 3.54-1.488 3.917-1.865 1.081-1.081-4.908-.665-7.34.509m10.31.614c-.597.967 8.38 3.527 9.265 2.642.338-.337-.259-1.252-1.326-2.032-2.098-1.534-7.128-1.921-7.939-.61M232.484 254c-4.597.934-21.484 7.694-22.984 9.201-1.414 1.421 6.125.128 16.362-2.805 4.599-1.318 9.918-2.396 11.819-2.396 3.014 0 3.417-.289 3.139-2.25-.365-2.564-2.314-2.974-8.336-1.75m-41.984 1.057c-2.2.455-7.922.854-12.716.885-8.429.056-8.921.19-14.905 4.058-3.404 2.2-6.725 4-7.379 4-1.579 0-5.001 3.832-4.167 4.666.36.36 7.52-.085 15.911-.989 8.391-.905 18.306-1.94 22.034-2.302 7.686-.745 7.518-.609 8.366-6.792.702-5.121.662-5.14-7.144-3.526m79.5 13.079c-18.975 6.454-34.155 11.764-33.733 11.8 1.12.094 21.957-4.453 39.087-8.528 8.169-1.944 15.104-3.283 15.41-2.977.739.739-2.771 4.573-4.169 4.554-1.649-.023-51.625 14.318-51.24 14.704.411.41 44.604-8.545 45.792-9.28 2.643-1.633.078 1.92-5.045 6.99l-5.898 5.837-67.785 16.865c-37.282 9.276-68.265 17.38-68.852 18.01-1.468 1.576 12.973.469 20.783-1.593 5.34-1.41 6.605-1.398 14.5.138 51.838 10.084 107.844-15.649 132.663-60.954 2.048-3.739 3.558-6.912 3.355-7.05-.202-.139-15.893 5.029-34.868 11.484m-28.432-8.246c-2.013 3.257-14.639 6.366-33.068 8.144-10.45 1.007-32.431 3.316-48.847 5.131l-29.847 3.3-7.653-2.846c-11.617-4.319-17.012-5.171-22.227-3.51-5.262 1.676-8.926 6.488-8.926 11.723 0 4.565 3.759 12.474 5.594 11.77 3.952-1.516 37.349-7.325 36.406-6.332-.559.589-23.779 5.262-31.435 6.326l-4.934.686 2.39 1.936c1.602 1.297 3.231 1.744 4.935 1.354 4.006-.918 25.274-4.729 28.044-5.026 6.284-.673 13-1.846 13-2.27 0-2.142-4.743-6.399-8.151-7.317-2.228-.6-3.818-1.323-3.533-1.608.64-.64 14.11-2.413 44.684-5.881 33.674-3.82 50.638-6.747 57.844-9.981 6.504-2.918 10.834-6.489 7.87-6.489-.878 0-1.844.401-2.146.89m-101.915 7.941c-.912 1.007-1.421 2.068-1.132 2.357 1.005 1.005 5.37-.41 7.074-2.293 1.647-1.82 1.596-1.895-1.285-1.895-1.65 0-3.746.824-4.657 1.831m37.59 13.212c-9.831 1.358-14.031 2.382-16.25 3.962-4.6 3.275-3.616 3.883 3.757 2.321 3.713-.787 9.225-1.838 12.25-2.337l5.5-.906-6.366.374c-9.237.543-6.277-1.252 4.32-2.62 6.648-.859 9.286-.856 10.675.011 2.734 1.708 5.207 1.47 4.478-.43-.334-.87-.607-1.77-.607-2 0-.662-3.566-.335-17.757 1.625m8.507 2.619c.688.278 1.813.278 2.5 0 .688-.277.125-.504-1.25-.504s-1.937.227-1.25.504m18.082 1.808c-.861 1.889-.827 2.831.143 4 2.883 3.474 7.752.562 6.618-3.957-.871-3.467-5.189-3.494-6.761-.043m-7.832-.537c0 .513-1.272.897-2.826.853-1.554-.044-3.691.467-4.75 1.136-1.746 1.103-1.693 1.155.576.561 1.375-.36 3.738-.609 5.25-.553 1.835.068 2.75-.402 2.75-1.414 0-.834-.225-1.516-.5-1.516s-.5.42-.5.933m-59.187 1.75c.721.289 1.584.253 1.916-.079.332-.332-.258-.568-1.312-.525-1.165.048-1.402.285-.604.604m40 3c.721.289 1.584.253 1.916-.079.332-.332-.258-.568-1.312-.525-1.165.048-1.402.285-.604.604m-19.798 1.567c-.01 1.176.723 1.724 2.235 1.671 1.503-.053 1.752-.268.75-.65-.825-.314-1.831-1.066-2.235-1.671-.453-.678-.74-.429-.75.65m5.798.433c.721.289 1.584.253 1.916-.079.332-.332-.258-.568-1.312-.525-1.165.048-1.402.285-.604.604M138.5 294c2.958.753 2.943.768-1 1.068-2.2.168-5.35.418-7 .557-1.65.138-4.8.971-7 1.851l-4 1.599 3.5-.473c1.925-.261 8.338-1.037 14.25-1.726 11.664-1.359 13.342-2.249 6.11-3.24-5.986-.821-8.713-.616-4.86.364m52.767 2.013c-4.079 1.662-.001 5.973 4.145 4.382 2.064-.792 1.741-4.784-.412-5.083-.825-.115-2.505.2-3.733.701m40.421 8.991c-27.457 7.42-35.557 10.098-25.688 8.493 13.688-2.227 56-13.96 56-15.529 0-1.255 2.635-1.867-30.312 7.036m-75.062-3.487c-3.099 3.099-1.37 7.483 2.952 7.483 2.935 0 4.635-2.28 4.244-5.69-.386-3.371-4.574-4.415-7.196-1.793m-35.434 3.196c-2.66.508-2.629 2.983.058 4.675 2.256 1.421 5.124-.248 5.57-3.24.329-2.218-.467-2.421-5.628-1.435m17.621 20.97c.721.289 1.584.253 1.916-.079.332-.332-.258-.568-1.312-.525-1.165.048-1.402.285-.604.604" fill-rule="evenodd"/>
</svg>